<svg viewBox="0 0 810 810" version="1.1" xmlns="http://www.w3.org/2000/svg" id="Layer_1">
  
  <defs>
    <style>
      .st0 {
        fill: #fdfcfa;
      }

      .st1 {
        fill: #010101;
      }

      .st2 {
        fill: #010102;
      }

      .st3 {
        fill: #040505;
      }

      .st4 {
        fill: #fcfcfc;
      }

      .st5 {
        fill: #f3f8ec;
      }

      .st6 {
        fill: #020202;
      }

      .st7 {
        fill: #edf9d6;
      }

      .st8 {
        fill: #99c14c;
      }

      .st9 {
        fill: #f3fbe9;
      }

      .st10 {
        fill: #93b849;
      }

      .st11 {
        fill: #97be46;
      }

      .st12 {
        fill: #93c83d;
      }

      .st13 {
        fill: #010201;
      }

      .st14 {
        fill: #97c345;
      }

      .st15 {
        fill: #8fbb44;
      }

      .st16 {
        fill: #e0f5d0;
      }

      .st17 {
        fill: #fefefd;
      }

      .st18 {
        fill: #eaf3da;
      }

      .st19 {
        fill: #fdfdfc;
      }

      .st20 {
        fill: #97c446;
      }

      .st21 {
        fill: #97c241;
      }

      .st22 {
        fill: #fefefe;
      }

      .st23 {
        fill: #fdfcfc;
      }

      .st24 {
        fill: #97c348;
      }

      .st25 {
        fill: #f4fbe8;
      }

      .st26 {
        fill: #fdfdfd;
      }

      .st27 {
        fill: #8fbf41;
      }
    </style>
  </defs>
  <rect height="810" width="810" class="st26"></rect>
  <path d="M422.25,198c-2.27.66-1.95-.93-2.86-1.41-12.6-6.67-25.34-12.74-39.89-13.58-.13,3.32,2.14,6.08,2.27,9.41.61,15.17-19.09,20.6-25.14,6.34-1.92,1.14-2.2,6.04-3.87,6.63-5.16,1.8-15.71.74-22.17,1.83-.79.13-2.98.19-2.83,1.28,9.74,1.71,26.08,3.17,32.64,11.24,15.77,19.4,3.48,61.93,11.83,86.42s34.33,43.76,53.61,61.14c.54,1.89,1.35,3.98,1.59,5.91,2.13,17.28,2.54,35.04,4.59,52.41.3,2.52,2.28,16.99,2.92,17.91,1.96,2.81,8.34.17,6.85-4.37-2.11-43.78,3.25-89.26.76-132.81-1.19-20.83-9.37-40.4-20.03-58.02l-29.03,11.11c-2.28,2.02-2.29,23.44-1.9,27.36,2.46,24.74,27.5,42.85,44.92,57.83v19.88c-1.44.08-2.55-1.17-3.67-1.95-15.93-11.12-46.14-38.52-53.07-56.43-4.92-12.72-3.33-19.98-3.23-32.71.07-9.12-.15-18.26,0-27.37,6.74-.84,50.43-20.98,53.08-19.4.88.53,9.02,15.55,10.27,17.86,23.52,43.37,18.16,77.24,18.33,124.92.08,22.72,1.44,46.2.06,69-.78,12.89-7.03,25.91-22.08,24.26-22.35-2.45-20.3-40.77-22.21-57.28-1.11-9.6-2.41-19.32-4.17-28.83-23.01-20.36-49.61-42.96-55.62-74.88-3.53-18.79-.07-37.57-1.71-56.04-.59-6.57-3.68-17.29-11.06-18.94-13.82-3.09-29.6-1.46-41.8-10.7-1.14-.86-6.4-6.05-6.4-7.12,0-1.69,5.32-5.67,6.85-6.68,11.16-7.38,27.19-10.07,40.36-10.27,9.77-38.19,55.83-27.3,81.82-13.8v19.88Z" class="st12"></path>
  <path d="M84.75,492.38c.78-2.5,6.34-.41,7.96-.45,4.06-.09,9.07-1.84,13.01.48.35.2,5.18,5.73,5.27,6.12.36,1.69-.82,10.75,1.14,10.71,1.25-.03,14.2-15.79,18.02-17.22,3-1.11,22.28-1.36,24.92-.21,1.27.56,2.01,2.31,3.52,2.4s3.82-1.62,5.49-2.02c19.96-4.81,37.24,1.43,47.44,19.3,5.94-8.89,11.75-15.83,22.52-19.1,18.38-5.58,31.96.14,44.01,13.64.45.5-.06,1.43,1.71.96v-14.62c0-.82,1.83-1.07,2.59-1.16,2.4-.28,16.11-.27,17.65.43,1.35.61,5.97,6.32,6.42,7.83.89,3,.07,6.67.35,9.78l18.7-17.67c6.23.18,21.55-2.11,26.34,1.49,1.21.91,6.29,6.93,5.91,8.22l-29.11,29.49c-.71,2.73,11.23,15.67,13.03,18.97l22.21-57.66,24.14.04c9.93,9.44,11.82,25.2,17.2,37.55l2.81,5.81v-44.25c7.12.15,14.28-.19,21.41-.03,5.95.13,16.03.16,21.54.96,7.55,1.1,12.2,5.84,17.05,11.07v-12h19.88c.64,0,7.12,7.34,7.12,7.88v47.62c3.74,2.36,14.25-.25,14.25-4.88v-49.88c13.26-.92,26.82-1.17,40.16-.79,8.82.25,22.94-.14,30.25,4.25l8.34,7.04v-11.25l41.65.73c8.96,1.07,18.57,10.91,22.71,18.54,2.65,4.9,3.45,8.06,3.52,13.74l11.66-32.22c4.28.83,22.85-1.29,25.31.13,1.53.88,6.46,10.28,7.4,12.47,8.81,20.57,14.78,43.37,23.74,64.01l.51,3.61h-22.12c-.45,0-5.08-6.11-5.65-7.1-1.52-2.64-2.96-8.89-4.43-10.57s-14.57-1.58-16.23-.39c-2.3,1.65-6.11,17.71-7.54,18.1l-34.3-.18c-5.32-4.92-7.96-10.86-10.03-17.69-.39-1.27-1.04-6.92-1.79-7.58-.5-.45-7.41-.38-7.41,1.03v24.38h-40.12c-.56,0-6.19-7.75-6.75-9-2.05-4.55-3.21-10.89-4.46-15.79-.98-1.42-5.39-.47-7.16-.72v24.38c0,.08-1.05,1.12-1.12,1.12h-19.5c-1.22,0-4.81-7.02-6.65-6.69-.8.14-3.09,3.19-4.28,4.02-16.73,11.58-38.07,7.75-49.1-9.32-3.33,2.05-4.76,5.22-8.36,7.36-4.62,2.75-11.01,4.29-16.33,4.67-16.74,1.18-34.87-.92-51.76-.05-6.98-3.92-8-12.15-11.65-18.41-3.57.45-14.5-1.83-16.43.86-1.69,2.37-5.43,16.88-6.14,17.49l-34.04.06c-1.27-.25-5.82-5.73-7.11-7.32-3.87-4.76-7.46-10.66-11.27-15.57-2.44-1.54-3.53,2.62-6.01,2.65v19.12c0,.08-1.05,1.12-1.12,1.12h-19.5c-1.29,0-4.79-7.58-6.76-7.29-.5.07-6.13,5.05-7.93,6.11-12.65,7.44-30.55,6.91-42.64-1.49-5.24-3.64-8.74-9.34-13.18-13.81-4.52,7.36-9.97,13.69-17.99,17.25-7.05,3.12-16.29,3.99-23.97,2.95-3.5-.48-7.74-3.29-11.29-3.71-5.34-.63-25.97,1.28-28.67-.97l-17.11-23.03c-1.09-.27-5.6,4.81-5.6,5.63v18.38h-21c-.16-2.08-5.25-6.43-5.25-7.88v-72Z" class="st14"></path>
  <path d="M389.73,370.78c21.84,15.44,21.84,51.11.21,66.78-29.64,21.48-65.14-8.16-58.35-41.85,5.3-26.29,35.13-41.2,58.14-24.93Z" class="st12"></path>
  <path d="M370.43,190.57c1.47,1,1.03,6.71-2.41,5.84-4.42-1.11-.71-7.97,2.41-5.84Z" class="st7"></path>
  <path d="M108,516.75l4.14-2.97c3.15-2.88,17.52-18.75,19.64-19.38,1.7-.5,18.73-.53,20.83-.14,2.38.45,3.3,3.68,5.25,3.72.77.02,7.08-2.88,9.37-3.39,15.79-3.49,30.53,1.82,39.76,15.04l6.01,8.6c5.89-23.4,34.4-31.23,53.95-19.06,6.89,4.29,10.32,11.89,15.81,17.56v-22.5h15.38c.43,0,5.62,5.95,5.62,6.38v16.12l22.51-22.11c1.6-.73,17.99-.72,20.62-.4,3.61.43,5.8,3.6,6.77,6.78l-29.58,29.72,19.41,25.77,22.86-61.52c.59-.75,1.4-.67,2.23-.77,2.53-.3,15.18-.37,17.14.2,1,.29,1.7,1.38,2.41,2.09,5.63,5.6,14.52,34.89,18.03,44.22l4.84,11.29v-56.62c0-.08,1.05-1.12,1.12-1.12h33.75c8.73,0,16.19,6.07,20.94,12.81l4.19,6.69v-18.38c0-.08,1.05-1.12,1.12-1.12h15c.44,0,4.94,5.86,4.83,7.17l.41,46.84c4.27,5.47,19.89.71,19.89-5.64v-48.38h16.12c.68,0,2.2,3.17,3,3.75.81-1.44-.15-3.67,2.24-3.75,14.21,1.33,34.42-3.69,46.5,5.25,4.31,3.19,6.82,8.56,10.88,12v-16.12c0-.82,1.83-1.07,2.59-1.16,8.63-1.01,32.7-.68,40.43,2.4,3.81,1.52,5.98,3.34,8.76,6.24,11.39,11.89,14.86,25.37-.77,35.3,3.21,4.39,5.29,9.28,6.38,14.61l21.73-57.78c1-1.02,19.25-1.2,20.64-.35.88.54,4.61,6.14,5.27,7.48l24.73,67.14h-16.88c-2.29,0-9.1-15.37-9.29-18.3-.78-1.11-18.07-.17-20.98-.34l-7.36,18.67-30.48-.17c-1.1-.34-4.99-5.73-5.68-7.07-1.51-2.96-4.47-18.28-6.47-18.28h-11.62v25.5h-35.62c-.49,0-4.88-6.2-5.42-7.33-2.51-5.18-2.8-12.37-4.71-16.85-.23-.55-1.5-1.32-1.86-1.32h-10.88v25.5h-17.25c-.39,0-2.96-5.81-4.34-6.54l-.9-6.21c-7.35,17.93-31.54,21.58-46.12,9.73-4.36-3.54-6.9-8.87-10.89-12.73-1.57,10.79-13.21,15.07-22.85,15.78-16.22,1.19-33.88-.93-50.26-.05-6.64-1.91-7.58-15-10.5-18-1.62-1.67-17.25-.49-20.68-.33l-7.21,18.39c-9.11-.95-20.33,1.15-29.17,0-1.31-.17-2.19-.34-3-1.5l-17.6-24.03c-.79-.54-8.99,7.27-8.99,7.87v17.62c-4.08-.72-13.13,1.15-16.49-.38-4.16-1.89-4.34-7.63-4.51-11.26-.04-.84.48-2.06-.74-1.85-6.74,13.8-23.62,20.08-38.3,16.91-10.11-2.18-16.54-7.64-22.78-15.47-1.78-2.23-3.35-5.75-4.89-7.72-.49-.64-1.27-.73-1.54-.47s-1.86,5.53-2.88,7.25c-4.58,7.78-10.84,13.1-19.63,15.62-32.36,9.32-57.44-24.38-49.51-54.38-2.01,1.78-13.52,12.3-13.39,13.75l27.64,38h-21c-2.06-3.08-17.64-25.14-19.21-25.47-.6-.12-8.54,7.98-8.54,8.59v16.88c-4.43-.73-12.01.99-15.97.01-.34-.08-4.28-5.28-4.28-5.64v-69.38h15.38c.37,0,4.88,5.25,4.88,5.62v16.88Z" class="st2"></path>
  <polygon points="138.74 539.25 132.95 531.37 137.63 526.5 138.74 539.25" class="st5"></polygon>
  <path d="M649.49,543c-1.23,1.27-3-3.32-2.88-4.02.16-.9,5.67-5.78,6.63-7.23-.73,1.69-3.15,10.63-3.75,11.25Z" class="st16"></path>
  <path d="M383.77,419.77c-14.37,17.33-45.04-1.76-33.17-26.05,13.61-27.84,54.05.86,33.17,26.05Z" class="st22"></path>
  <path d="M414,498c.72-1.13,23.33-.98,26.66-.79,5.15.3,11.99,1.03,16.34,3.91,10.41,6.91,7.09,21.08-3.25,25.75,9.46,4.06,14.42,9.08,12.57,20.07-.87,5.17-6.18,9.21-10.86,10.89-.95.34-5.29,1.66-5.84,1.66h-35.62v-61.5Z" class="st4"></path>
  <path d="M199.99,505.76c17.05,17.7,8.91,54.76-18.12,57.48-26.61,2.67-41.95-17.55-36.14-42.89s37.76-31.72,54.26-14.59Z" class="st19"></path>
  <path d="M244.35,496.73c47.28-3,46.83,73.18-3.78,66.33-34.63-4.68-35.21-63.86,3.78-66.33Z" class="st26"></path>
  <path d="M594,498c.72-1.13,23.35-.99,26.66-.79,11.96.75,25.45,6.11,23.52,20.6-.8,5.99-5.11,9.18-10.15,11.6-1.67.8-4.12.6-4.78,2.34,10.13,2.11,9.98,13.69,12.54,21.59.71,2.2,2.1,3.95,2.46,6.16h-12c-2.49-6.09-2.85-18.54-7.88-22.5-.53-.42-3.53-2.25-3.75-2.25h-15c-.23,0-.58-.95-1.12-.75v24.38c0,1.89-8.88.9-10.5,1.12v-61.5Z" class="st4"></path>
  <path d="M296.25,527.62c-.02.34-1.93,1.3.37,1.12,4.24-3.3,30-31.49,32.26-31.49h12.38l-25.51,27.36,24.76,34.89h-11.62c-1.71,0-17.72-24.38-21.08-26.97-.88-.19-11.55,10.77-11.55,11.59v15.38h-10.5v-61.12c0-1.69,10.5-1.69,10.5,0,0,9.6.44,19.73,0,29.25Z" class="st26"></path>
  <path d="M564.38,497.25c11.68,1.07,22.44,8.27,20.56,21.31-.71,4.89-4.83,8.41-8.93,10.56-.64.34-6.05,1.58-5.25,2.62,11.59,3.85,9.46,18.53,14.25,27.76h-10.88c-3.86-5.13-3.37-13.82-6.22-19.28-.66-1.26-4.67-5.47-5.78-5.47h-15.75c-.23,0-.58-.95-1.12-.75v25.5h-9.75v-61.12c0-.08,1.05-1.12,1.12-1.12,8.71,0,19.32-.77,27.75,0Z" class="st26"></path>
  <path d="M100.5,529.5l32.62-32.25h13.12l-25.49,27.36,24.74,34.89h-12.75c-.1,0-.14-1.15-.74-1.84-6.86-7.91-12.2-17.3-19.21-25.12-1.04-.22-12.3,11.47-12.3,12.34v14.62h-9.75v-61.12c0-1.68,9.75-1.68,9.75,0v31.12Z" class="st0"></path>
  <path d="M475.23,497.35c1.49-.49,8.6-.61,9.17,1.13l.45,46.05c5.71,13.06,28.99,11.41,30.45-3.37,1.32-13.47-1.15-28.99.07-42.68.64-1.95,8.55-1.63,9.32-.53,1.85,2.65-.6,41.17.15,47.49-7.45,25.85-48.47,23.24-50.85-4.29-.4-4.69-.88-41.43.35-43.2.23-.34.53-.47.9-.6Z" class="st19"></path>
  <path d="M407.25,559.5h-10.5l-5.92-17.55c-.82-1.17-24.88-.1-28.5-.36l-6.09,17.91h-10.5l23.24-61.89c3.16-.21,14.06-1.46,15.7.83l22.56,61.06Z" class="st19"></path>
  <path d="M711,559.5h-10.5l-6.1-17.9c-3.62.22-27.66-.83-28.48.34l-5.92,17.55h-10.5l22.46-60.97c1.86-2.31,12.66-1.19,15.81-.92l23.24,61.89Z" class="st23"></path>
  <path d="M591,558l-3.6-12.52-4.65-7.71c3.55-.78,5.42-4.15,8.25-6.02v26.25Z" class="st21"></path>
  <polygon points="471 537 466.6 531.5 471 524.25 471 537" class="st10"></polygon>
  <path d="M444.38,531c7.38.92,11.62,6.04,9.8,13.55-.85,3.51-6.47,7.45-9.8,7.45h-19.88v-21c6.28.56,13.76-.76,19.88,0Z" class="st1"></path>
  <path d="M424.5,523.5v-19.5h18.38c3.58,0,9.37,5.42,9.4,9.36.05,5.41-5.84,10.14-10.9,10.14h-16.88Z" class="st3"></path>
  <path d="M162.27,550.23c-12.71-12.9-7.7-47.73,15.75-46.16,26.37,1.77,25.39,48.23,3.06,51.63-6.47.98-14.15-.74-18.81-5.47Z" class="st6"></path>
  <path d="M245.09,504.2c31.54-2.91,31.12,58.38-3.63,51.22-21.08-4.34-21.77-48.87,3.63-51.22Z" class="st6"></path>
  <path d="M604.5,504h18.38c.33,0,4.48,1.94,5.13,2.37,6.77,4.43,6.28,13.97.12,18.63-.55.42-3.53,2.25-3.75,2.25h-19.5c-1.67,0-.38-1.75-.38-1.88v-21.38Z" class="st6"></path>
  <path d="M563.62,504c9.21,1.53,13.12,11.9,7.38,19.3-.84,1.09-4.8,3.95-5.88,3.95h-19.88v-23.25c5.59.65,13.04-.88,18.38,0Z" class="st13"></path>
  <path d="M387.75,534h-22.5c4.1-8.38,6.17-18.69,10.12-27,.41-.87.76-2.06,1.87-2.25l10.51,29.25Z" class="st1"></path>
  <polygon points="669 534 679.88 504.75 691.5 534 669 534" class="st1"></polygon>
  <path d="M450.75,540.75c1.24,8.73-10.87,9.03-16.91,8.29-4.36-.54-2.11-4.76-2.58-8.28,6.66-1.28,12.84-.55,19.5,0Z" class="st27"></path>
  <path d="M431.25,519.75c.19-1.67-.62-5.5.7-6.42,1.08-.75,15.56-.37,16.55.43-.18,1.8-3.21,5.99-4.87,5.99h-12.38Z" class="st15"></path>
  <path d="M165.97,550.29c-2.58-3.01-2.85-14.18-2.46-18.16,1.12-11.5,9.21-19.96,21.3-18.31,13.98,1.91,10.93,30.11,1.44,36.55-4.87,3.31-16.25,4.62-20.28-.08Z" class="st20"></path>
  <path d="M236.44,550.31c-4.5-4.77-2.47-23.25,1.13-28.87,5.15-8.04,21.46-11.98,25.49-1.87,4.78,12,.91,32.39-14.52,33.86-2.89.27-10.19-1.09-12.09-3.11Z" class="st24"></path>
  <path d="M628.12,513.75c3.66.62,1.38,5.81-.37,7.88-3.7,4.38-9.91,3.28-15.01,3.37-.27-3.73.75-7.73-.75-11.25,4.9.58,11.46-.79,16.12,0Z" class="st8"></path>
  <path d="M552.75,513.75h16.88c2.96,0,.74,10.4-8.21,11.29-11.31,1.12-8.44-1.76-8.66-11.29Z" class="st11"></path>
  <path d="M447,543c-1.17,4.98-8.91,2.39-12.75,3-.31-.84.32-3,1.12-3h11.62Z" class="st18"></path>
  <path d="M171.26,520.76c4.78-4.98,17.11-6.53,19.07,1.79,2.69,11.44-.85,29.75-15.89,27.89-4.73-.58-6.73-1.97-7.59-6.65-1.23-6.61-.42-17.99,4.42-23.03Z" class="st17"></path>
  <path d="M259.32,518.43c1.45,1.6,2.5,10.45,2.47,12.96-.02,1.49-.53,6.81-.81,8.08-.12.52-1.16.47-1.41,1.11-.4,1.03-.18,2.2-.9,3.45-4.88,8.49-20.32,10.27-21.66-2.92-1.13-11.16,2.34-25.19,16.09-24.38,1.12.07,5.67,1.08,6.23,1.7Z" class="st17"></path>
  <path d="M627,516.75c-1.21,4.09-3.62,5.28-7.87,5.3-6.76.05-3.84-5.3-3.01-5.3h10.88Z" class="st25"></path>
  <path d="M567,516.75c.63,6.38-13.37,7.86-11.16,1.22.79-2.37,8.8-.77,11.16-1.22Z" class="st9"></path>
</svg>