<svg viewBox="0 0 810 810" version="1.1" xmlns="http://www.w3.org/2000/svg" id="Layer_1">
  
  <defs>
    <style>
      .st0 {
        fill: #fff;
      }
    </style>
  </defs>
  <path d="M810,0v810H0V0h810ZM446.25,119.26c-7.18-.35-14.28-2.25-21.38-3-71.51-7.51-151.84,5.51-218.02,33.2-5.04,2.11-31.57,13.83-33.63,16.62-2.55,3.46-1.25,16.85-1.43,21.82-2.34,62.85.79,132.82,20.95,192.73,3.54,10.53,7.9,20.81,12.02,31.11,1.14.21,2.12-.59,2.58-1.53,1.37-2.77,2.28-14.1,4.89-15.36,23.67-1.96,46.68-3.89,69.93-8.82,26.74-5.66,66.35-14.88,71.76-46.74,3.59-21.12-3.38-31.51-19.64-43.22-34.31-24.71-83.22-35.47-68.58-90,18.07-67.28,115.27-86.14,174.9-85.35l5.63-1.48ZM485.74,518.74c92.33-94.82,111.87-210.25,104.52-339.12-.22-3.9.94-11.32-1.48-14.27-1.27-1.55-15.31-8.1-18.27-9.48-21.02-9.83-46.28-19.19-68.75-25-3.51-.91-12.08-3.65-15.02-2.24-5.93,9.83-10,21.03-15.1,31.39-1.69,3.43-5.64,13.75-9.31,13.95-26.19-3.69-84.71-4.98-101.59,19.16-13.89,19.85-.93,35.31,16.98,44.52,37.65,19.37,84.76,25.27,122.53,44.72,50.17,25.84,38.26,89.62,8.22,126.74-44.3,54.71-158.05,82.81-222.91,108.59-1.7.68-4.8,1.23-5.1,3.16.02,1.62,11.39,12.29,13.52,14.28,18.27,17.14,40.23,34.47,60.97,48.53,3.68,2.49,23.62,15.52,26.3,15.37s17.58-9.77,20.97-11.92c29.15-18.52,59.44-43.67,83.5-68.37ZM449.62,386.25c3.81.57,10.08,0,14.25,0,.48,0,1.07,1.2,1.15,1.87.21,1.91-5.83,20.07-7.17,21.36s-7.27,2.98-9.33,3.42c-36.03,7.76-49.22-28.25-29.89-55.39,16.26-22.82,43.72-26.41,69.98-24.5,3.47.25,14.65,3.43,16.71,1.32,2.34-2.4,5-22.28,7.48-26.58l-1.3-2.89c-45.41-7.41-107.13-.78-134.28,41.24-15.18,23.49-18.92,58.48,4.92,77.63,26.26,21.08,70.68,17.18,98.52,1.05l15.67-55.53c.08-.74-.42-2.06-.94-2.52-1.71-1.5-32.23-.84-37.19-1.16-1.21.32-1.68,1.25-2.39,2.11-.84,1.03-8.89,14.7-9.15,15.56-.53,1.77,1.55,2.79,2.96,3ZM498.72,660.72c-2.52-15.01-28-14.32-34.28-2.4-7.85,14.89,14.22,25.02,27.32,18.31,5.94-3.05,11.89-11.7.66-9.84-2.98.49-5.13,3.71-7.69,4.3-10.98,2.49-16.62-8.93-7.66-13.65,9.02-4.76,12.56,7.51,21.67,3.28ZM518.1,649.72c-9.29.78-18.27,7.33-15.87,17.68,3.43,14.8,31.67,15.63,35.76-.04,3.14-12.04-9.54-18.51-19.89-17.64ZM175.88,650.25c-7.41-1.32-18.42.98-26.25,0l-1.12,1.12v24.75c0,.25.99,1.14.75,1.88h25.88c1.05,0,6.21-1.69,7.18-2.57,2.5-2.24,2.93-7.7.51-9.99-.81-.77-2.68-.53-2.87-1.39-.45-2.06,1.94-4.08,2.16-6.1.35-3.25-3.15-7.16-6.22-7.7ZM197.62,657c2.73-.77,14.14,0,18,0,2.29,0,2.05-5.6,0-6.75h-27l-1.12,1.12v25.5l1.12,1.12h27c2.09,0,2.09-6.75,0-6.75h-17.25c-.11,0-1.77-.78-1.89-1.17-1.33-6.98,21.82,1.38,17.46-7.65-1.79-3.71-15.97-.21-17.44-2.44-.42-.64.22-2.73,1.12-2.99ZM246.75,671.25h-14.62c-.28,0-2.62-1.7-2.62-1.88v-18c-1.16-1.53-3.8-1.32-5.66-1.16-.69.06-1.41-.06-2.09.16l-1.24,1.01v25.5l1.12,1.12h24c2.08,0,2.15-5.21,1.12-6.75ZM259.5,676.88v-25.5c-1.16-1.53-3.8-1.32-5.66-1.16-.69.06-1.41-.06-2.09.16l-1.24,1.01v24.75c0,.21.77,1.75,1.26,1.9,1.75-.19,7.16.7,7.74-1.15ZM291.38,650.25c-7.75-1.3-18.85.97-27,0l-1.12,1.12v24.75c0,.25.99,1.14.75,1.88h27.38c2.17,0,2.42-5.6,0-6.75h-17.25c-.23,0-1.39-1.52-1.86-1.88.56-.44,2.36-2.62,2.61-2.62h14.25c1.76,0,.96-4.76.38-6h-15.38l-1.12-3.75h17.62c.21,0,2.05-1.16,2.25-1.5l.26-4.38c-.58-.13-1.35-.81-1.75-.87ZM313.54,667.47c-2.08-2.96-6.46-14.98-8.6-16.53s-9.82-2.16-8.34,3.08c.77,2.72,6.36,12.79,8.11,15.91.97,1.74,3.74,7.09,5.07,7.68,2.04.92,8.75.83,10.51-.71,1.41-1.24,7.27-12.77,8.61-15.39,1.75-3.44,3.53-6.88,4.87-10.5-12.4-5.56-12.17,10.61-17.63,15.73-.88.83-1.39.95-2.58.73ZM364.88,650.25h-27l-1.12,1.12v24.75c0,.25.99,1.14.75,1.88h26.62c2.37,0,2.37-6.75,0-6.75h-16.5c-.17,0-1.51-1.37-1.65-1.87-.15-.95,1.55-2.63,2.4-2.63h13.5c1.31,0,1.94-4.5-.37-5.63-2.65-1.3-13.76.68-14.89-1.23l-.12-2.89,19.46-.79c.1-1.47.51-5.47-1.08-5.96ZM419.62,650.25c-7.09-1.42-18.64,1.06-26.25,0l-1.12,1.12v25.5l1.12,1.12h24.75c.61,0,5.12-1.19,5.91-1.59,3.55-1.77,4.45-5.92,2.9-9.47-.79-1.83-3.11-2.34-3.24-2.94-.59-2.81,4.3-7.19-.31-11.51-.41-.39-3.41-2.16-3.77-2.23ZM432.38,678h27c1.75-1.5,1.75-5.25,0-6.75h-18c-.64,0-1.34-1.55-1.05-2.54,1.65-5.48,22.56,3.6,16.05-7.96h-14.25c-2.69,0-2.06-3.75-.75-3.75h17.25c2.73,0,2.59-6.01.65-6.65-4.75.6-25.04-1.44-27.71.58-1.88,1.42-.36,2.82-.47,4.18-.35,4.06-1.57,18.44-.2,21.37.16.35,1.24,1.44,1.49,1.51ZM570.19,651.19c-1.75,1.69-6.78,16.3-8.81,16.3-7.32-6.78-5.19-21.11-19.17-16.91l-.37,26.72c8.63,2.79,8.9-.9,9.06-8.31,3.07.06,4.04,7.84,7.05,8.68,1.69.47,6.1.75,7.56-.06,2.84-1.57,5.12-16.19,7.46.05,3.61.58,7.74,1.53,8.33-3.01.4-3.01.39-19.89-.37-22.2-1.07-3.26-9.07-2.87-10.73-1.27ZM613.5,650.25h-27.38l-1.12,1.12v25.5l1.12,1.12h26.25c2.09,0,2.09-6.75,0-6.75h-17.25c-.27,0-1.15-.96-1.87-.76l.33-2.28,17.35-2.16c1.89-9.07-10.77-3.8-15.7-5.41l-1.23-3.64h18.38c2.08,0,2.15-5.21,1.12-6.75ZM370.25,671.38c-5.17,1.76.04,9.42,5.55,6.29l.37-5.72c-.71-1.03-4.77-.97-5.92-.57Z" class="st0"></path>
  <path d="M485.74,518.74c-24.06,24.71-54.36,49.86-83.5,68.37-3.39,2.16-18.25,11.77-20.97,11.92s-22.63-12.88-26.3-15.37c-20.74-14.06-42.7-31.39-60.97-48.53-2.13-2-13.5-12.67-13.52-14.28.29-1.93,3.4-2.48,5.1-3.16,64.86-25.78,178.61-53.88,222.91-108.59,30.05-37.11,41.95-100.9-8.22-126.74-37.77-19.45-84.88-25.35-122.53-44.72-17.91-9.21-30.87-24.67-16.98-44.52,16.88-24.13,75.39-22.85,101.59-19.16,3.67-.2,7.62-10.52,9.31-13.95,5.1-10.36,9.17-21.57,15.1-31.39,2.94-1.41,11.51,1.33,15.02,2.24,22.46,5.81,47.73,15.18,68.75,25,2.96,1.38,16.99,7.93,18.27,9.48,2.42,2.95,1.26,10.37,1.48,14.27,7.35,128.87-12.19,244.3-104.52,339.12Z"></path>
  <path d="M446.25,119.26l-5.63,1.48c-59.64-.79-156.83,18.06-174.9,85.35-14.64,54.53,34.27,65.28,68.58,90,16.26,11.71,23.22,22.1,19.64,43.22-5.41,31.86-45.01,41.08-71.76,46.74-23.26,4.92-46.27,6.86-69.93,8.82-2.61,1.25-3.53,12.58-4.89,15.36-.46.94-1.44,1.74-2.58,1.53-4.12-10.3-8.48-20.58-12.02-31.11-20.17-59.91-23.29-129.88-20.95-192.73.18-4.96-1.11-18.35,1.43-21.82,2.06-2.79,28.58-14.51,33.63-16.62,66.18-27.7,146.51-40.72,218.02-33.2,7.1.75,14.2,2.65,21.38,3Z"></path>
  <path d="M449.62,386.25c-1.41-.21-3.49-1.23-2.96-3,.26-.86,8.3-14.53,9.15-15.56.71-.86,1.18-1.79,2.39-2.11,4.96.32,35.48-.34,37.19,1.16.52.46,1.01,1.77.94,2.52l-15.67,55.53c-27.84,16.12-72.26,20.03-98.52-1.05-23.84-19.14-20.09-54.14-4.92-77.63,27.15-42.02,88.87-48.65,134.28-41.24l1.3,2.89c-2.47,4.29-5.14,24.17-7.48,26.58-2.06,2.12-13.24-1.06-16.71-1.32-26.26-1.9-53.72,1.68-69.98,24.5-19.33,27.14-6.14,63.14,29.89,55.39,2.06-.44,8-2.14,9.33-3.42s7.38-19.45,7.17-21.36c-.07-.66-.67-1.87-1.15-1.87-4.17,0-10.44.57-14.25,0Z"></path>
  <path d="M570.19,651.19c1.66-1.6,9.66-1.99,10.73,1.27.76,2.31.77,19.19.37,22.2-.6,4.54-4.73,3.59-8.33,3.01-2.34-16.24-4.62-1.62-7.46-.05-1.46.81-5.87.53-7.56.06-3.01-.84-3.98-8.62-7.05-8.68-.15,7.4-.43,11.09-9.06,8.31l.37-26.72c13.98-4.2,11.85,10.13,19.17,16.91,2.03,0,7.06-14.6,8.81-16.3Z"></path>
  <path d="M175.88,650.25c3.07.55,6.57,4.45,6.22,7.7-.22,2.01-2.61,4.04-2.16,6.1.19.86,2.06.62,2.87,1.39,2.43,2.29,1.99,7.75-.51,9.99-.97.88-6.13,2.57-7.18,2.57h-25.88c.24-.74-.75-1.63-.75-1.88v-24.75l1.12-1.12c7.83.98,18.84-1.32,26.25,0ZM157.5,656.25l1.12,4.5h12.75c1.49,0,1.49-4.5,0-4.5h-13.88ZM174.74,670.48c1.38-6.71-16.94-4.44-17.28-3.3.09,1.55-.51,4.13,1.27,4.72,5.48.17,10.86.71,16.01-1.41Z"></path>
  <path d="M419.62,650.25c.35.07,3.36,1.85,3.77,2.23,4.61,4.32-.29,8.7.31,11.51.13.6,2.45,1.11,3.24,2.94,1.54,3.55.64,7.7-2.9,9.47-.79.4-5.3,1.59-5.91,1.59h-24.75l-1.12-1.12v-25.5l1.12-1.12c7.61,1.06,19.16-1.42,26.25,0ZM414.38,656.25c-3.07-.52-8.56,0-12,0-.53,0-2.3,2.35-1.91,3.3.07.41,1.8,1.2,1.91,1.2h12c2.31,0,3.04-3.99,0-4.5ZM404.06,666.18c-4.76.88-4.94,4.75-.77,5.65,2.73.59,17.71,1,14.12-4.37-1.28-1.91-10.97-1.72-13.35-1.28Z"></path>
  <path d="M518.1,649.72c10.34-.86,23.03,5.6,19.89,17.64-4.08,15.66-32.33,14.83-35.76.04-2.4-10.35,6.58-16.9,15.87-17.68ZM517.28,657.16c-7.22,1.66-7.7,13.15.58,14.1,16.12,1.85,12.63-17.15-.58-14.1Z"></path>
  <path d="M432.38,678c-.25-.07-1.33-1.17-1.49-1.51-1.37-2.93-.15-17.31.2-21.37.12-1.36-1.4-2.76.47-4.18,2.67-2.02,22.96.01,27.71-.58,1.95.64,2.08,6.65-.65,6.65h-17.25c-1.31,0-1.94,3.75.75,3.75h14.25c6.52,11.56-14.4,2.48-16.05,7.96-.3,1,.41,2.54,1.05,2.54h18c1.75,1.5,1.75,5.25,0,6.75h-27Z"></path>
  <path d="M291.38,650.25c.41.07,1.17.74,1.75.87l-.26,4.38c-.2.33-2.04,1.5-2.25,1.5h-17.62l1.12,3.75h15.38c.59,1.24,1.39,6-.38,6h-14.25c-.25,0-2.05,2.19-2.61,2.62.47.35,1.63,1.88,1.86,1.88h17.25c2.42,1.15,2.17,6.75,0,6.75h-27.38c.24-.74-.75-1.63-.75-1.88v-24.75l1.12-1.12c8.15.97,19.25-1.3,27,0Z"></path>
  <path d="M197.62,657c-.91.26-1.55,2.35-1.12,2.99,1.47,2.22,15.65-1.28,17.44,2.44,4.35,9.03-18.8.67-17.46,7.65.12.4,1.78,1.17,1.89,1.17h17.25c2.09,0,2.09,6.75,0,6.75h-27l-1.12-1.12v-25.5l1.12-1.12h27c2.05,1.15,2.29,6.75,0,6.75-3.86,0-15.27-.77-18,0Z"></path>
  <path d="M364.88,650.25c1.59.49,1.18,4.49,1.08,5.96l-19.46.79.12,2.89c1.13,1.91,12.24-.06,14.89,1.23,2.32,1.13,1.68,5.63.37,5.63h-13.5c-.85,0-2.56,1.68-2.4,2.63.15.5,1.48,1.87,1.65,1.87h16.5c2.37,0,2.37,6.75,0,6.75h-26.62c.24-.74-.75-1.63-.75-1.88v-24.75l1.12-1.12h27Z"></path>
  <path d="M613.5,650.25c1.03,1.54.95,6.75-1.12,6.75h-18.38l1.23,3.64c4.93,1.6,17.59-3.66,15.7,5.41l-17.35,2.16-.33,2.28c.72-.2,1.6.76,1.87.76h17.25c2.09,0,2.09,6.75,0,6.75h-26.25l-1.12-1.12v-25.5l1.12-1.12h27.38Z"></path>
  <path d="M498.72,660.72c-9.11,4.23-12.65-8.04-21.67-3.28-8.96,4.73-3.32,16.14,7.66,13.65,2.57-.58,4.72-3.8,7.69-4.3,11.23-1.86,5.29,6.79-.66,9.84-13.09,6.71-35.17-3.43-27.32-18.31,6.28-11.92,31.77-12.61,34.28,2.4Z"></path>
  <path d="M313.54,667.47c1.19.22,1.7.1,2.58-.73,5.46-5.12,5.23-21.3,17.63-15.73-1.33,3.62-3.11,7.07-4.87,10.5-1.34,2.62-7.2,14.15-8.61,15.39-1.76,1.54-8.47,1.63-10.51.71-1.32-.59-4.1-5.95-5.07-7.68-1.74-3.12-7.34-13.19-8.11-15.91-1.48-5.23,6.19-4.64,8.34-3.08s6.52,13.57,8.6,16.53Z"></path>
  <path d="M246.75,671.25c1.03,1.54.95,6.75-1.12,6.75h-24l-1.12-1.12v-25.5l1.24-1.01c.68-.21,1.4-.1,2.09-.16,1.86-.16,4.51-.37,5.66,1.16v18c0,.17,2.34,1.88,2.62,1.88h14.62Z"></path>
  <path d="M259.5,676.88c-.57,1.85-5.99.96-7.74,1.15-.5-.15-1.26-1.69-1.26-1.9v-24.75l1.24-1.01c.68-.21,1.4-.1,2.09-.16,1.86-.16,4.51-.37,5.66,1.16v25.5Z"></path>
  <path d="M370.25,671.38c1.15-.39,5.21-.45,5.92.57l-.37,5.72c-5.51,3.13-10.72-4.53-5.55-6.29Z"></path>
  <path d="M174.74,670.48c-5.15,2.12-10.53,1.58-16.01,1.41-1.78-.59-1.18-3.17-1.27-4.72.35-1.14,18.66-3.41,17.28,3.3Z" class="st0"></path>
  <path d="M157.5,656.25h13.88c1.49,0,1.49,4.5,0,4.5h-12.75l-1.12-4.5Z" class="st0"></path>
  <path d="M404.06,666.18c2.38-.44,12.07-.64,13.35,1.28,3.59,5.37-11.39,4.96-14.12,4.37-4.17-.9-3.99-4.77.77-5.65Z" class="st0"></path>
  <path d="M414.38,656.25c3.04.51,2.31,4.5,0,4.5h-12c-.11,0-1.84-.8-1.91-1.2-.39-.95,1.38-3.3,1.91-3.3,3.44,0,8.93-.52,12,0Z" class="st0"></path>
  <path d="M517.28,657.16c13.21-3.04,16.7,15.96.58,14.1-8.28-.95-7.8-12.44-.58-14.1Z" class="st0"></path>
</svg>