<svg viewBox="0 0 810 810" version="1.1" xmlns="http://www.w3.org/2000/svg" id="Layer_1">
  
  <defs>
    <style>
      .st0 {
        fill: #69c9d6;
      }

      .st1 {
        fill: #91dfe6;
      }

      .st2 {
        fill: #7ad5e2;
      }

      .st3 {
        fill: #89dce8;
      }

      .st4 {
        fill: #6acfd8;
      }

      .st5 {
        fill: #7bd4e1;
      }

      .st6 {
        fill: #66ccd2;
      }

      .st7 {
        fill: #83d9e6;
      }

      .st8 {
        fill: #87d7e4;
      }

      .st9 {
        fill: #84d7e1;
      }

      .st10 {
        fill: #73cdd8;
      }

      .st11 {
        fill: #64c8d3;
      }

      .st12 {
        fill: #00b0cc;
      }

      .st13 {
        fill: #7dd5e6;
      }

      .st14 {
        fill: #fdfdfc;
      }

      .st15 {
        fill: #7ad2db;
      }

      .st16 {
        fill: #b4eff4;
      }

      .st17 {
        fill: #79d5e0;
      }

      .st18 {
        fill: #7dd4e2;
      }

      .st19 {
        fill: #59bfd1;
      }

      .st20 {
        fill: #01b0cc;
      }

      .st21 {
        fill: #83dde1;
      }

      .st22 {
        fill: #95e0e2;
      }

      .st23 {
        fill: #fdfdfd;
      }
    </style>
  </defs>
  <rect height="810" width="810" class="st23"></rect>
  <path d="M576,240c2.51.92,5.01,1.92,7.5,3,.98.53,2.01.99,3,1.5,7.48,3.32,15.02,6.41,22.61,9.27,1.66.95,1.62,3.47-.11,4.23-6.92,4.62-14.66,9.06-21.62,13.42-39.68,24.87-81.32,50.3-118.8,78.11-13.92,10.32-30.15,21.2-21.2,41.21,7.97,17.8,29.33,26.8,47.98,26.32,32.63.62,69.75-3.57,102.04-.84,1.23.1,2.47.09,3.57.74,1.2.72,6.1,12.35,6.73,14.46,4.83,16.14,3.64,34.02-3.83,49.09-1.27,2.55-2.13,6.01-5.71,5.54l-144.78-.06c-16.95-1.78-31.48-8.57-45.39-17.99-1.45-2.05-3.23-3.3-5.32-3.73-5.51,5.28-11.97,9.17-18.68,12.73-10.93,4.24-20.63,8.3-32.59,9.03-46.48,2.84-95.8-2.23-142.58.01-3.35.4-5.77-3.89-7-6.5-5.74-12.14-7.61-27.66-5-40.84.71-3.58,5.87-19.67,8.11-21.51.58-.48,3.08-.92,3.97-.96,37.18-1.96,80.22,3.69,116.58-.73l10.5-3c15.21-7.73,31.98-24.62,23.11-42.99-2.49-5.16-10.24-11.32-14.93-15.07-22.04-17.59-47.48-32.05-70.43-48.44-3.21-2.18-6.46-4.18-9.75-6-21.74-15.03-44.4-28.46-66.95-41.96-1.38-1.12-1.39-2.98-.35-4.36l30.71-12.26c26.76-12.55,54.22-25.67,80-40.9,23.09-13.64,43.23-29.27,69.69-36.81,55.31-15.76,93.97,21.77,138.4,46.41,19.69,10.92,40.53,19.57,60.5,29.87Z" class="st12"></path>
  <path d="M447,528c7.5,2.41,12.08,8.8,13.5,16.5,1.43,9.87,2.02,28.81-4.48,36.94-2.27,2.84-6.4,4.08-8.56,5.75s3.58,5.03,4.78,6.46c7.36,8.85,11.33,37.15,14.08,49.66.32,1.44-.11,3.09.18,4.2.04.17,3.56,1.99.38,1.99h-27c-2.01,0-4.51-22.04-5.07-24.93-.77-3.97-1.85-8.61-2.81-12.57-2.62-7.5-6.58-13-15.36-11.77-7.67.4-15.3.32-22.89-.23-.73-.73-.67-.75-.79-1.8-.49-4.43-.51-15.97,0-20.37.09-.76.34-2.59,1.16-2.59h31.5c3.4,0,8.04-4.24,8.56-7.94,1.48-10.55-.37-16.01-11.52-16.84-12.85-.95-26.84.81-39.82-.01l-2.53,1.22-1.18,97.82h-25.88l.08-125.17,76.08-.11c6.52.41,11.5,1.8,17.59,3.78Z" class="st12"></path>
  <path d="M486,534c3.24-4.35,10.62-7.35,15.86-8.52,1.49-.33,6.61-1.23,7.77-1.23h69.38c1.26,8.66.91,17.75,0,26.25h-64.12c-.3,0-4.99,1.6-5.57,1.93-5.51,3.12-5.11,15.07-3.81,20.57h73.5c1.75,5.96.38,12.37.15,18.37-.09,2.28,1.17,5.02-.15,7.88h-73.12c-.08,0-1.12,1.05-1.12,1.12v12.75c0,4.65,5.54,10.12,10.12,10.12h64.12c-.41.96.75,2.22.75,2.62v22.5c0,.08-1.05,1.12-1.12,1.12h-71.25c-.29,0-4.35-1.25-5.62-1.5l-9-3c-5.64-3.14-5.75-5.35-9.75-9-1.18-2.19-2.18-4.69-3-7.5-.99-4.31-2.01-8.64-2.29-13.09-1.07-16.9-1.79-54.8,2.29-70.16,1.52-4.24,3.52-7.99,6-11.25Z" class="st12"></path>
  <path d="M135.38,550.5c-8.5,1.2-12.33,11.06-7.44,17.94,2.39,3.37,7.16,4.25,11.17,4.58,16.89,1.42,32.55-2.56,49.32,3.18,29.78,10.19,30.24,58.75.56,69.9-1.6.6-11.35,3.39-12.36,3.39h-74.62v-26.25h70.12c4.68,0,10.28-4.27,11.29-8.96,2.03-9.47-4.11-14.22-12.8-15.03-20.34-1.91-41.25,5.07-59.02-8.31-16.85-12.68-16.91-45.68-.01-58.42,4.61-3.47,15.12-8.28,20.79-8.28h72c.08,0,1.12,1.05,1.12,1.12v24c0,.08-1.05,1.12-1.12,1.12h-69Z" class="st20"></path>
  <path d="M309,571.5c-.24-.74.75-1.63.75-1.88v-44.25c0-.08,1.05-1.12,1.12-1.12h24.75c.08,0,1.12,1.05,1.12,1.12v122.25c0,.25-.99,1.14-.75,1.88h-25.12c-.08,0-1.12-1.05-1.12-1.12v-49.5c0-.08-1.05-1.12-1.12-1.12h-57c-.08,0-1.12,1.05-1.12,1.12v49.5c0,.08-1.05,1.12-1.12,1.12h-24.75c-.08,0-1.12-1.05-1.12-1.12v-124.12h25.88c.08,0,1.12,1.05,1.12,1.12v45c0,.08,1.05,1.12,1.12,1.12h57.38Z" class="st20"></path>
  <path d="M612,573.75c-7.69-13.44-18.7-32.33-24.67-46.21-.47-1.1-1.05-2-.83-3.29h28.88c7.42,11.62,13.23,24.25,19.92,36.34,2.1,3.79,4.5,10.24,7.46,13.53,1.36,1.51,1.76,1.17,2.99,1.87,2.04,1.09,3.94,1.02,6,0,.67-.36,1.67-1.02,2.25-1.5,3.02-3.92,5.52-8.17,7.5-12.75,3.32-6.61,6.83-13.07,10.5-19.5l6.98-13.74c.76-1.88,1.81-3.05,3.15-3.51.03-.42.07-.74.13-.75,7.77-.66,18.79-.32,26.73,0,.18,0,.35.33.51.75.93,1.49.43,3.24-1.5,5.25-2.86,7.32-8.31,15.37-12,22.5-.58,2.18-1.47,4.31-3,6-3,5.74-6.01,11.51-9,17.25-2.36,3.92-4.86,7.92-7.5,12-4.4,4.37-8.76,7.89-14.25,10.88v49.5c0,.08-1.05,1.12-1.12,1.12h-24.75c-.08,0-1.12-1.05-1.12-1.12v-48c0-1.91-8.71-6.38-10.66-7.92-2.31-1.83-4.74-5.18-6.59-7.45-2.24-3.47-4.24-7.22-6-11.25Z" class="st12"></path>
  <path d="M672,542.25c1.8-6.53,5.73-13.02,9.38-18.75h29.62c.65,3.61-.44,4.66-3,6.75.56-1.42,1.21-3.71,1.5-5.25h-27.38c-3.8,4.48-5.65,10.7-8.47,15.57-.53.92-1.52,1.44-1.66,1.68Z" class="st17"></path>
  <path d="M432,612c-1.87-3.17-5.17-9.75-8.96-10.92-6.18-1.91-20.14.52-27.49-.29-1.05-.12-1.06-.06-1.8-.79l30.21.16c5.43,3.13,6.67,6.21,8.04,11.84Z" class="st6"></path>
  <path d="M408,468c-2.16-.21-2.82-3.27-5.52-3.04-.22.02-1.61,2.25-2.27,2.72-6.25,4.49-9.68,6.78-16.2,9.32,2.37-2.52,6.04-3.76,8.93-5.7,1.71-1.15,8.94-7.55,9.6-7.72,1.51-.38,5.59,2.46,5.47,4.42Z" class="st16"></path>
  <path d="M586.5,244.5l23.47,8.96c1.04.74,1.19,1.91.96,3.08-.4,2.01-1.55,1.21-1.92,1.46.31-1.16,1.06-2.25.09-3.42-1.23-1.48-12.23-4.81-14.99-6.06s-5.06-2.71-7.6-4.02Z" class="st8"></path>
  <path d="M447,528c1.28.42,4.47.93,5.77,1.74,1.91,1.19,7,8.75,7.53,10.86.37,1.46.03,2.69.2,3.9-2.24-5.08-3.89-10.08-8.62-13.51-1.58-1.14-3.97-.93-4.88-2.99Z" class="st1"></path>
  <path d="M661.5,561.75c-2.8,5.57-2.49,8.57-7.5,12.75l7.5-12.75Z" class="st2"></path>
  <path d="M684,576c-3,5.76-2.78,7.31-7.5,12,1.55-3.48,3.82-6.46,5.52-9.89.53-1.07.1-2.55,1.98-2.11Z" class="st10"></path>
  <path d="M618,585c-.08-.09-.93.28-1.35-.13-.59-.58-4.4-9.42-4.65-11.12,2.05,3.58,5.23,6.99,6,11.25Z" class="st3"></path>
  <path d="M264,300c1.84-.53,2.07.2,3.14.84,2.7,1.59,4.46,3.63,6.61,5.16-3.7-.51-6.95-4.06-9.75-6Z" class="st0"></path>
  <path d="M501.75,648c-4.57-.91-4.9-.71-9-3,2.78.32,7.3.83,9,3Z" class="st5"></path>
  <path d="M336,412.5c-4.98,2.53-4.94,2.32-10.5,3,3.29-1.29,7.03-2.66,10.5-3Z" class="st21"></path>
  <path d="M486,534c-2.56,3.44-2.96,8.11-6,11.25,1.03-3.88,1.7-5.86,3.77-9.4.59-1.01.62-2.19,2.23-1.85Z" class="st11"></path>
  <path d="M483,636c-.11-.1-1.06.27-1.36-.11-.48-.61-1.35-6.11-1.64-7.39,1.62,1.88,2.68,4.99,3,7.5Z" class="st7"></path>
  <path d="M583.5,243c-2.84.35-5.16-1.79-7.5-3,3.05-.53,5.15,1.73,7.5,3Z" class="st13"></path>
  <path d="M651.75,576c-.8.43-.44,1.73-3.39,1.58-2.28-.12-2.08-1.28-2.61-1.58h6Z" class="st2"></path>
  <path d="M693,558.75c.97-1.86,2.05-4.17,3-6-.08,2.18-1.04,4.82-3,6Z" class="st15"></path>
  <path d="M444,243.75c1.75,1.6,3.7,3.04,6,3.75,3.31,2.08,19.17,11.81,19.56,14.66.16,1.21-1.08,1.27-1.56,1.84-6.11,4.02-12.11,8.02-18,12-4.76,3.05-9.58,6.12-14.44,9.02l-31.87,23.86-1.66-.22c-3.43-3.01-7.1-5.63-10.52-8.66-1.76-.53-3.27-1.65-4.5-3-11.56-7.5-22.91-16.23-34.5-24-1.04-1.41-2.54-2.41-4.5-3-2.74-1.87-8.02-4.6-10.13-6.75-2.22-2.27.45-3.65,2.38-5.12,9.8-7.45,22.12-14.34,33.25-19.63l12-4.5c22.49-5.35,38.64-.82,58.5,9.75Z" class="st14"></path>
  <path d="M468,264c-.1.12.24.94-.17,1.3-3.65,3.19-13.29,7.79-17.83,10.7-.35-1.6.86-1.63,1.84-2.25,5.28-3.36,10.5-7.06,16.16-9.75Z" class="st19"></path>
  <path d="M385.5,234c-3.66,1.73-7.99,4.16-12,4.5,5.21-2.48,6.09-3.1,12-4.5Z" class="st18"></path>
  <path d="M450,247.5c-2.36.01-4.79-1.76-6-3.75,2.67,1.42,3.74,2.34,6,3.75Z" class="st4"></path>
  <path d="M348,270c1.67.59,4.95.91,4.5,3-1.58-1.06-3.42-2.26-4.5-3Z" class="st9"></path>
  <path d="M387,297c2.36,1.53,2.37,1.11,4.5,3-2.15.27-3.55-1.27-4.5-3Z" class="st22"></path>
</svg>