<svg viewBox="0 0 810 810" version="1.1" xmlns="http://www.w3.org/2000/svg" id="Layer_1">
  
  <defs>
    <style>
      .st0 {
        fill: #d22820;
      }

      .st1 {
        fill: #161112;
      }

      .st2 {
        fill: #8e2519;
      }

      .st3 {
        fill: #dededc;
      }

      .st4 {
        fill: #d02a21;
      }

      .st5 {
        fill: #d0b947;
      }

      .st6 {
        fill: #c6ac23;
      }

      .st7 {
        fill: #3e3b3a;
      }

      .st8 {
        fill: #1f1a17;
      }

      .st9 {
        fill: #181111;
      }

      .st10 {
        fill: #be2c25;
      }

      .st11 {
        fill: #dfdedd;
      }

      .st12 {
        fill: #8e2224;
      }

      .st13 {
        fill: #373533;
      }

      .st14 {
        fill: #d5d4d2;
      }

      .st15 {
        fill: #c32921;
      }

      .st16 {
        fill: #fefefe;
      }

      .st17 {
        fill: #c92a22;
      }

      .st18 {
        fill: #272624;
      }

      .st19 {
        fill: #d9d8d6;
      }

      .st20 {
        fill: #d9251c;
      }

      .st21 {
        fill: #84201d;
      }

      .st22 {
        fill: #c62a22;
      }
    </style>
  </defs>
  <path d="M678,553.09v134.8H132V141.89h546v136.16l-.94,2.72-138.07-.66c-75.55-69.91-190.69-70.38-264.41-.59-1.24.08-2.23-.45-3.02-1.47l-.94,2.72h-135.61l-1.65-2.72c1.07-.02,2.72.29,2.72.95.89,89.8.89,182.59,0,272.42l-2.72,1.67c-.01-1.06.28-2.71.94-2.72,40.63-.88,83.99-.98,124.76,0,6.04-1.02,10.21-.11,12.5,2.72.46-1.18,1.26-1.84,2.47-1.88,73.89,71.1,190.17,68.95,265.72-.35l136.6-.49,1.65,2.72Z" class="st16"></path>
  <path d="M678,278.05v275.04l-137.92.29c-70.74,64.36-171.97,71.65-250.05,15.28-3.09-2.23-16.34-15.57-18.47-15.57h-138.2v-275.04h138.2c1.89,0,24.7-19.82,29.93-23.18,75.78-48.73,173.1-37.3,238.59,22.89l137.92.29Z" class="st6"></path>
  <path d="M678,547.65v-249.17,249.17Z" class="st5"></path>
  <path d="M540.08,232.05c26.57-6.13,29.54,33.91,3.77,32.48-19.28-1.07-20.1-28.71-3.77-32.48Z" class="st18"></path>
  <path d="M401.31,232.16c160.01-3.48,248.85,186.63,141.23,305.97-86.91,96.37-245.86,74.44-302.33-42.19-58.26-120.3,28.23-260.89,161.1-263.78Z" class="st20"></path>
  <path d="M213.7,415.57c-.02,12.2,2.01,27.77,4.48,39.77,6.9,33.46,23.74,63.99,45.89,89.58h-122.54v-129.35l1.24-2.72h69.31l1.61,2.72Z" class="st8"></path>
  <path d="M141.53,415.57v-129.35h122.54c-21.84,25.28-38.78,55.41-45.66,88.46-2.57,12.35-4.7,28.34-4.72,40.89h-72.16Z" class="st20"></path>
  <path d="M669.83,415.57v129.35h-122.54c6.62-8.64,13.7-16.78,19.63-25.99,19.3-29.95,30.69-67.5,30.75-103.37l1.24-2.72h69.31l1.61,2.72Z" class="st8"></path>
  <path d="M597.67,415.57c.03-20.38-4.46-45.12-11.24-64.33-8.4-23.77-23.05-45.82-39.14-65.03h122.54v129.35h-72.16Z" class="st20"></path>
  <path d="M555.46,256.26c-2.98,2.92-8.6-3.91-6.81-6.81l-.42-1.85c5.53-5.06-3.97-5.57-8.28-5.37l-2.19-2.3c-.39,1.19-.84,1.17-1.36,0,2.27-2.45,1.42-3.69,6.09-4.18,12.51-1.32,19.76,9.51,12.97,20.52Z" class="st3"></path>
  <path d="M545.93,250.82c2.76.37,6.05,5.36,6.81,8.17-7.08,4.4-11.29,2.85-16.34-2.72.39-1.19.84-1.17,1.36,0l1.28-1.39c-1.5-7.83,4.91-12.31,6.89-4.06Z" class="st19"></path>
  <path d="M537.76,239.92c3.61.27,3.08,5.41,2.72,8.45-.11.91-1.85,6.96-2.72,7.88h-1.36c-5.87-6.47-6.01-9.85,0-16.34h1.36Z" class="st11"></path>
  <path d="M548.65,249.46c2.38,2.23,3.35,7.39,6.81,6.81-.96,1.56-1.17,1.76-2.72,2.72-2.9-2.39-5.68-4.36-6.81-8.17-.79-3.51-.09-3.53,2.72-1.36Z" class="st7"></path>
  <path d="M400.23,389.7c-20.98.97-42.11,1.2-63.39.69-1.83,2.07-8.72,1.91-10.14-.69-.85-13.12-1.14-28.77,0-41.53-4.37-2.26-6.58-1.27-6.63,2.98l.46,27.71c3.88-.09,3.74,9.35.73,10.84,1.78-1.77,2.54-.91,1.36,1.36,7.67.18,15.84,1.08,24.51,2.72,5.72-2.05,13.75-1.22,19.31,1.18,11.66-.45,22.01,1.43,31.07,5.63,1.66,2.63,3.72,5.66,4.15,8.79,1.77,12.9,1.72,66.17-.39,78.71-1.95,11.57-12.89,17.38-23.67,18.54-26.19,2.82-79.38,2.32-106.08.22-14.35-1.13-23.59-5.83-25.12-21.17-2.09-20.84,1.52-44.84-.02-66.02,12.84-.63,25.77-.9,38.79-.81.7-1.31,1.42-2.35,2.24-2.43,5.06-.47,34.95-.38,34.64,3.13-.07.74-.38,1.45-.77,2.15.64-.07,1.26-.08,1.82.11,2.78.93,1.61,52.74.91,58.21l-2.72,1.6c2.03-1.23,3.41-1.1,5.45,0l-1.82-.1c-1.08-19.95-1.38-40.26-.91-60.93l2.72-1.6c-1.71,1.36-3.75,1.07-6.09-.88-18.84-1.81-37.69-3.56-56.54-5.25-7.33-3.46-15.33-10.67-17.1-18.98-1.49-7.03-1.62-46.79.3-52.96s11.5-13.12,17.85-14.83c16.45-4.45,87.48-3.33,107.25-1.78,13.51,1.06,26.37,6.6,28.9,21.48,1.45,8.5,1.06,28.81.39,37.89-.14,1.89-.16,4.6-1.42,6.04Z" class="st9"></path>
  <path d="M560.9,335.24c2.94,3.88,4.3,7.74,4.08,11.57,1.55,12.82,1.07,27.43,0,40.85-.67,2.71-4.05,3.71-10.14,2.99l-51.85-.72c-3.55,1.96-9.56,2.11-12.9-.23l-2.72-1.21c.47-.9-.21-43.12-1.05-38.3-.77,13.59-.87,27.22-.31,40.88l16.16.13c1.29,1.85,3.62,2.72,6.99,2.6,8.03-2.01,18.37-1.13,26.28,1.74,17.8-2.43,28.08,2.6,30.84,15.1,1.67,26.96,1.48,54.42-1.29,81.2-2.11,3.34-6.41,8.35-9.53,10.89-3.04,1.82-6.08,2.97-9.62,3.33-9.55.96-19.4,1.31-29.08,1.47-30.63.5-61.64.34-92.01-2.07-.45-.03-.92.05-1.36,0-6.91-2.74-15.02-10.79-13.62-18.38-1.17-20.86-1.15-44.2,0-65.36-.98-1.31.57-2.66,2.04-2.04,8.48-.81,17.32-1.03,26.54-.68.37-1.14.74-2.02,1.16-2.04,12.55-.59,29.01-.51,41.49.58.86.07,1.33,1.12,1.61,2.14,2.88-2.35,3.82-1.25,2.04,2.04.64-.07,1.26-.09,1.82.11,2.77.96,1.2,51.61.91,58.21l-2.72,1.6c4.79.37,5.69-4.09,2.7-13.39.62-16.45.41-32.85-.65-49.19-15.63-1.88-31.55-2.85-47.77-2.92l-.77-2.32-10.7-.95c-4.4-1.41-13.86-10.21-15.64-15-3.04-8.23-3.3-44.12-1.74-53.43,1.59-9.44,10-15.58,18.71-18.05,17.08-4.85,83.67-3.4,104.24-2.07,12.18.79,19.48,1.75,27.86,10.95Z" class="st1"></path>
  <path d="M423.38,505.44c-6.77-.8-14.98-9.5-14.98-15.66v-69.44c0-.14,1.9-2.04,2.04-2.04h27.91v-4.08c-4.49.64-7.01-.12-10.89-1.37l56.57,2.66c1.83.03,3.65.47,4.84,1.97,2.65,3.36.91,42.53,1.17,50.57.11,3.3,3.75,14.19-.65,15.58-1.66.52-4.74-.87-4.74-2.02v-59.91c0-.14-1.9-2.04-2.04-2.04h-70.8c-.14,0-2.04,1.9-2.04,2.04v65.36c0,5.36,8.39,16.15,13.62,18.38Z" class="st17"></path>
  <path d="M246.37,419.66c-.07-1.34.88-1.26,1.97-1.4,11.85-1.51,26.67,1.2,38.87.03.31-3.56.18-2.26-2.04-2.67-6.5-1.21-16.18-.44-21.1-2.77,5.65.27,11.42-.36,17.08-.06,11.21.6,28.83,1.22,39.34,2.87,1.58.25,6.21,2.1,6.21,3.32v62.63c0,2.34-5.45,2.35-5.45,0v-59.91c0-1.49-3.32-1.95-4.7-2.11-21.58-2.53-48.07,2.03-70.19.07Z" class="st22"></path>
  <path d="M530.95,391.06c4.48,2.27,9.65,3.01,15.51,2.23l.83,1.85c10.5.81,18.03,2.35,20.1,14.62,2.31,13.74,1.94,61.37.36,75.96-.42,3.9-1.19,3.6-2.76,6.09-1.83-26.08,2.43-55.38.06-81.08-.52-5.66-3.18-11.18-9.2-12.59-13.82-3.23-32.31-2.02-46.69-4.37-4.79.11-7.29-1.17-7.49-3.83,9.8-.29,19.56.08,29.28,1.11Z" class="st15"></path>
  <path d="M564.99,391.06c-11.66,1.56-23.01,1.56-34.04,0-9.51.03-19.08-.03-28.59.01-.16,1.2,6.03,2.58,6.8,2.71-5.84-.31-18.73.03-23.15-2.72.16-3.32,1.63-3.62,4.08-1.36,20.88-3.03,48.82,2.58,70.19.07,1.37-.16,4.7-.62,4.7-2.11v-40.85c0-2.43-3.92-8.44-4.08-11.57,4.05,4.45,4.73,4.62,5.43,11.59.56,5.65.68,41.94-1.34,44.23Z" class="st2"></path>
  <path d="M321.26,389.7l-2.68-38.77c1.21-6.21,8.13-5.38,8.13-2.76v41.53h73.53c-1.28,1.46-1.41,1.25-3.27,1.44-9.95,1.01-23.09-.11-33.49-.08l-6.8,1.82c-10.69-1.48-13.87-1.18-9.54.9-5.46-.22-20.43.43-24.51-2.72,1.24-3.25.79-3.71-1.36-1.36Z" class="st21"></path>
  <path d="M555.46,502.71c-4.15,3.39-4.33,3.62-10.16,4.14-33.72,2.99-78.29.34-113.08-.03-2.3-.02-6.06.87-7.47-1.39,32.77,2.39,86.47,2.51,119.2.06,4.32-.32,7.49-1.77,11.52-2.78Z" class="st12"></path>
  <path d="M564.99,391.06c-3.02,3.43-15.87-.01-17.71,1.36-.22.17.13,1.96.01,2.72-5.24-.41-16.03,2.58-16.34-4.08,11.33-.03,22.71.03,34.04,0Z" class="st4"></path>
  <path d="M363.47,391.06c-1.16,3.59,5.85,3.76,7.66,3.91,8.07.68,17.07-.94,24.72,2.48,2.78,1.24,1.26,2.49,1.67,3.13-16.08-5.76-33.65-4.3-50.38-6.81l-10.89-2.71c9.06-.04,18.17.01,27.23-.01Z" class="st10"></path>
  <path d="M537.76,239.92c7.82-2.32,22.39,3.02,10.89,9.53-.68.39-2.23,1.36-2.72,1.36-.96,0-3.52-2.12-5.44-1.36l-.02,8.16-2.71-1.36v-16.34Z" class="st13"></path>
  <path d="M330.79,384.25c-2.69-10.32,7.82-38.97-5.42-43.03-4.28-1.31-10.09,2.76-10.88,6.98-1.18,6.24-.86,32.56-.06,39.48.84,7.22,5.08,8.94,11.71,10.07,20.09,3.45,43.4,1.54,63.79,5.65,5.14,1.01,5.9,5.66,6.29,10.05,1.57,17.59,1.55,51.95,0,69.56-.68,7.74-3.53,14.97-11.94,16.66-18.65,3.76-37.5.06-55.51.19-17.01.13-34.5,2.67-51.8,1.54-8.95-.58-25.13-2.07-25.13-14.35v-61.95h61.95c.14,0,2.04,1.9,2.04,2.04v55.83c0,6.06,13.76,8.83,16.08,1.1l-.35-65.85c-1.66-3.59-4.67-6.63-8.53-7.81l-55.45-3.1c-10.04-2.7-14.91-9.51-15.8-19.6s-1.11-31.48.02-40.93c1.66-13.74,16.18-16.83,27.94-16.99,2.56-.03,5.22,1.44,8.11,1.42,29.47-.26,63.73-3.53,92.68-.09,6.09.72,15.63,9.83,15.63,15.69v35.4c0,.14-1.9,2.04-2.04,2.04h-63.31Z" class="st16"></path>
  <path d="M321.26,389.7c-2.3-11.11,1.71-29.52,0-41.52.16-1.26,1.75-1,2.75-.03,2.28,2.21,1.53,32.45,1.34,38.21-.09,2.62,1.39,5.46-2.72,4.7-.49-.38-1.22-.67-1.36-1.36Z" class="st0"></path>
  <path d="M559.54,384.25h-64v-37.44c0-4.43-14.5-9.7-17.42.28-1.19,4.07-.96,33.78-.31,39.24.8,6.75,5.02,10.45,11.72,11.42,18.17,2.63,38.62,1.79,56.91,4.36,8.96,1.26,12.36.54,13.15,9.99,1.58,18.77,1.72,54.99,0,73.65-.91,9.92-9.06,14.54-18.44,15.6-27.94,3.15-74.72.71-103.48-1.1-1.9-.12-4.12,1.25-6.65,1.05-7.5-.59-15.82-8.09-15.82-15.62v-58.55c0-.14,1.9-2.04,2.04-2.04h61.95v57.87c0,.3,3.32,4.62,3.67,4.83,4.41,2.74,12.82.21,13.7-5.09l-1.01-62.4c.16-5.69-5.13-9.31-10.32-10.1-16.17-2.47-36.26-.61-52.9-2.93-7.26-1.01-11.82-4.62-14.67-11.21-3.55-8.21-3.59-38.15-2.47-47.9.68-5.97,3.82-11.05,9.05-14.1,9.28-5.4,42.9-2.68,55.68-2.87,12.1-.18,25.99-1.83,38.13-1.47,9.22.27,19.72,2.13,29.25,2.05,3.97.51,12.21,9.11,12.21,12.3v40.17Z" class="st16"></path>
  <path d="M486.01,391.06c-.66-.41-1.64-.49-2.03-1.34-1.1-2.42-1.42-34.9-.7-38.83s3.28-3.55,6.8-3.41v42.21c-.58.09-2.43,2.05-4.08,1.36Z" class="st15"></path>
  <path d="M548.64,242.66c2.97,2.5-10.39,9.34-8.17,0h8.17Z" class="st14"></path>
  <path d="M488.74,350.21v39.49c-1.16.57-4.08-1.15-4.08-2.04v-37.44h4.08Z" class="st4"></path>
</svg>