<svg viewBox="0 0 810 810" version="1.1" xmlns="http://www.w3.org/2000/svg" id="Layer_1">
  
  <defs>
    <style>
      .st0 {
        fill: #fff;
      }
    </style>
  </defs>
  <path d="M810,0v810H0V0h810ZM477.45,529.21c12.96-15.36,19.6-41.43,23.34-61.04,13.42-70.34,3.93-145.66,1.67-216.52-.69-21.54.25-41.42-3.92-62.83-7.1-36.38-26.71-78.38-59.11-98.39-17.67-10.91-42-18.08-61.84-9.47l-6.34,3.78c3,.78,5.2-1.21,7.85-1.52,81.73-9.46,111.85,107.3,107.68,169.18-.74,10.97-2.66,23.45-15.47,25.03-23.67,2.94-50.69-2-75.68.82-7.28.82-14.79,5.25-21.94,6.56-19.4,3.57-66.52,6.79-85.13,2.99-4.21-.86-8.08-5.15-10.29.58-2.59,6.71,1.08,13.34,8.61,13.17,2.92-.07,5.07-1.6,7.71-2.1,32.05-6.12,67.18-.07,99.57-2.43,19.19-1.4,36.57-9.53,56.96-7.52,6.01.59,12.14,3.13,18.77,3.05,10.04-.12,26.69-13.2,28.89,4.8,1.18,9.66.41,27.33.01,37.55-.41,10.48-1.36,28.32-4.92,37.83-1.62,4.33-5.82,8.15-10.52,6.86-3.41-2.89,1.84-24.56-1.52-24.86l-12.68,6.03c-1.61,7.64,2.73,13.93-5.71,18.29-11.34,5.86-29.94.49-43.04,1.21-17.59.96-33.89,8.53-51.1,11.15-21.99,3.34-45.64.57-67.42,3.08-6.79.78-4.78,10.96-1.47,11.26,6.98-1.39,13.85-3.9,21-4.48,8.54-.69,18.36.09,26.9-.85,15.31-1.7,30.65-6.65,45.9-8.85,18.35-2.65,37.13-2.21,55.45-5.3,9.06.43,17.99-1.67,27-2.27,2.34-.16.91,3.84.43,4.94-4.51,10.39-29.58,7.25-22.4,26.03,2.56,6.7,14.25,9.9,5.46,17.03-5.49,4.46-16.83,4.73-24.01,5.24-13.9,1.01-28.15-.17-41.98.77-26.37,1.77-51.5,14.08-78,14.3-3.83.03-7.66-1.4-11.64-.81-.03,3.24-.84,6.73,2.96,7.91,5.53,1.71,18.41-3.13,24.25-5.07,10.67-3.53,17.78-1.38,28.69-2.06,5.29-.33,11.12-2.04,16.44-2.31,14.16-.72,30.7,1.87,45,2.31,11.56.36,23.9-.81,35.31-.06,1.14.07,4.46.17,4.84,1.52-4.68,3.27-9.15,2.93-14.42,3.96-22.81,4.47-46.02,8.31-68.63,13.12-4.41.94-8.91.52-13,3.64-.12,4.04,4.71,8.1,2.23,11.84-.96,1.45-5.93,3.24-7.78,3.47-12.15,1.49-29.19-.31-42.05-.05-2.99.06-5.42,1.4-8.81.62-3.16-.73-7.87-7.66-9.84-10.41-.64-.9-5.86-11.2-7.19-9.68.28,6.58-.4,13.28,0,19.86,1.49,24.19,6.16,50.4,28.1,64.15,22.15,13.88,63.09,19.81,88.3,14.76,22.4-4.48,53.8-22.34,68.55-39.82ZM442.77,164.73c-4.35-4.57-4.51-10.79-12.64-11.73-20.86-2.41-42.82,9.04-63.09,11.91-9.92,1.41-20,.98-29.94,1.56-9.6.55-19.23,1.76-28.85,1.91,0,.37,4.1,1.06,4.89,1.12,23.93,1.81,48.01,1.11,72.02,2.23,16.97.79,31.18,2.98,48.71,1.52,2.25-.19,10.27-1.06,11.88-1.62,1.14-.39,2.06-2.32,1.94-3.54-1.49-.68-3.84-2.22-4.92-3.35ZM302.25,165.76c-2.68.4-4.38-2.36-6.53-2.85-3.24-.74-7.05.92-9.75,2.66-.6.39-2.05.49-.96,1.67s14.32,1.06,16.32.2c1.07-.46,1.13-.19.93-1.68ZM273.86,192.87c-9.34,16.19,4.68,10.68,15.04,12.86,30.27,6.35,60.98,2.55,91.64,6.61,2.57.34,4.81,1.81,6.88,2.12,15.71,2.35,43.76.35,58.47-5.2,2-.75,5.41-3.19,6.92-3.58,4.37-1.11,14.48,1.51,16.88-4.12,2.61-6.12-4.55-20.02-7.3-26.04-3.07.92-2.69,3.73-4.12,5.61-7.34,9.66-11.63,10.5-23.64,11.61-18.51,1.7-38.6,3.05-56.96,2.98-8.28-.03-17.24-.48-25.34.97-4.1.73-9,3.23-12.9,3.6-16.16,1.56-41.98.04-57.41-4.92-2.65-.85-4.98-3.52-8.14-2.51ZM264.1,244.4c.38.59,11.36,4.82,12.99,5.38,15.77,5.39,33.54,6.67,50.08,4.26,6.75-.98,13.59-3.81,20.42-4.33,36.61-2.77,77.97,4.54,114.77.02,4.38-.54,13.64-2.18,16.14-5.62s-1.54-7.39-2.21-11.28c-.56-3.24.08-7.62-.92-11.08l-1.1-1.15c-5.34-1.82-19.83,7.94-25.79,10.01-18.72,6.5-45,8.33-64.85,10.15-25.44,2.33-61.31,6.3-86.07,2.05-5.12-.88-11.11-3.16-16.15-4.1-3.15-.59-15.4-3.03-17.05-.22-.51.87-.69,5.27-.27,5.91ZM289.5,337.88v14.25c0,.29,1.3,2.32,1.84,2.4,10.41-2.7,20.93-4.65,31.46-6.61,13.78-2.57,27.88-4.54,41.87-6.88,6.18-1.03,13.66-3.73,19.72-4.28,12.52-1.14,26.94.47,39.77.02,17.02-.6,44.06-5.43,59.94-2.26,1.25.25,1.65,1.04,2.64,1.48,1.73-1.84-1.43-24.08-2.65-24.02-6.49,3.24-12.46,5.22-19.85,5.28.14,3.71,5.67,8.74-1.28,10.34-14.43,3.31-27.63.98-41.85.17-34.81-1.98-67.76,6.58-102.05,8.93-8.6.59-18.76-.94-26.98.02-1.09.13-1.93.09-2.59,1.16ZM570.56,641.43c-7.11,1.3-3.93,13.87-3.84,19.56.16,9.99-.66,20.29-.54,30.13.03,2.1.51,7.47,2.69,7.88,3.51.66,16.47,1.37,16.17-4.09-.82-14.51.95-29.93,0-44.32-.14-2.05-.65-7.6-1.96-8.54-1.73-1.24-10.12-1.06-12.51-.62ZM612,665.62c-.88-6.89.65-15.41,0-22.5-2.45-2.13-16.76-2.65-18.02-.6l.02,55.16c.99,1.81,14.71,1.81,16.51.94,2.3-1.12,1.05-6.01,2.42-8.83,6.26-12.94,11.85,9.2,16.7,9.2h21l1.04-1.77-18.48-24.87c.08-1.1,11.21-9.88,12.97-11.6.58-.57,3.41-3.07,2.6-3.77-6.14.48-19.57-1.83-24.37,1.5-3.85,2.66-6.53,8.36-11.62,9.75.31-1.03-.68-2.03-.76-2.62ZM277.21,691.97c6.53-8.49,5.53-25.72-3.68-32.12-10.84-7.54-42.17-7.85-49.43,4.88-5.56,9.75-4.16,26.19,6.7,31.84,10.19,5.3,38.7,5.42,46.41-4.6ZM338.72,660.29c-10.07-7.63-38.53-7.72-47.75,1.56-6.65,6.69-6.86,24.48-.37,31.18,9.34,9.65,39.39,9.26,49.53.72,8.89-7.48,7.76-26.52-1.4-33.46ZM503.62,669c2.27.68,12.42,0,15.75,0,.35,0,3.51-3.35,5.75-4,4.2-1.21,13.6-1.3,13.04,4.76-3.15,5.88-36.42-1.96-39.24,13.29-3.27,17.69,16.2,17.95,28.6,16.61,3.7-.4,9.02-3.6,10.6-3.6,2.19,0,4.22,2.95,4.5,2.95h14.25l1.12-1.12v-27c0-3.06-2.53-8.67-4.88-10.87-7.47-6.98-33.85-6.56-42.89-2.4-3.07,1.41-11.19,10.03-6.61,11.39ZM195.75,672.38v24.75c0,2.54,13.09,2.19,15.42,1.92,1.77-.21,2.4-.43,3-2.25,1.02-3.1.69-23.84.24-28.07-1.35-12.72-12.82-15.63-23.76-11.94-3.1,1.04-4.37,3.05-7.3,3.96-6.76-5.89-14.69-6.72-23.03-3.54-1.37.52-2.61,2.55-3.95,2.55s-2.36-1.81-3.45-2.31c-2.36-1.08-11.76-.96-14.55-.43-.85.16-1.41.34-1.88,1.11v39c0,.25.99,1.14.75,1.88h15.38c1.55,0,2.37-2.1,2.56-3.42.72-5.05-1.2-21.25,1.05-24.12,2.61-3.31,8.88-3.14,10.12,1.06,1.66,5.65-1.03,17.49.18,23.82.88,4.65,12.64,2.25,16.51,2.3,2.11-1.41.58-9.26.7-12.06.19-4.36,1.09-9.31,1.17-13.83,1.9-2.3,4.67-4.86,7.84-3.39.37.17,2.96,2.79,3.02,3ZM367.12,657c-4.25-.04-8.5.03-12.75,0l-1.12,1.12v39c0,.25.99,1.14.75,1.88h14.62c.28,0,2.62-1.7,2.62-1.88v-19.5c0-4.49,4.72-9.1,9.3-8.62.68.07,4.71,1.81,5.19,2.2,2.45,2.01.76,18.72,1.24,22.94.24,2.09,1.04,4.39,3.41,4.84,1.47.28,12.29.28,13.38-.09,1.58-.53,1.88-3.95,2.01-5.49.54-6.6.57-22.22-.94-28.37-1.97-8.04-15.01-10.5-21.92-9.49-3.18.47-9.84,4.98-12.27,3.54-.42-.25-.66-2-1.66-2.53s-1.61.45-1.87.44ZM674.26,663l-1.98-5.9c-4.33.4-10.74-1.33-14.77.03-3.8,1.29-1.35,12.85-1.4,15.99-.11,6.85-1.54,14.92-.64,21.79.19,1.46.85,3.05,2.31,3.69s13.79.73,14.99.03c3.53-2.09-.9-18.19,4.06-23.69,2.77-3.08,10.33-4.02,14.25-3.63,2.49.25,4.47,2.86,5.88-.25,1.09-2.41,1.37-14.5-1.44-15.44-7.27-2.43-15.87,3.07-21.24,7.38ZM429.38,657h-17.25c-1.79,0,.34,6.84.76,8.24,1.35,4.45,3.02,9.94,4.49,14.26.87,2.55,6.53,17.98,7.56,18.69,1.67,1.17,17,1.27,19.05.41,3.99-1.66,6.4-16.06,9.39-19.84,2.2.03,6.05,17.31,9.06,19.43,1.67,1.17,17.02,1.26,19.05.42,1.04-.43,2.58-2.56,3.07-3.68,2.46-11.52,9.56-24.38,11.65-35.65.16-.85.55-1.25-.42-1.93-5.99-.81-12.66-.95-18.47.33-1.55,1.18-4.35,14.92-5.93,18.07-.49.98-.84,2.36-2.24,2.26l-7.88-20.64-14.51-.25c-3.52,1.21-6.05,18.89-9.87,21.62l-7.5-21.74Z" class="st0"></path>
  <path d="M477.45,529.21c-14.75,17.48-46.15,35.34-68.55,39.82-25.21,5.04-66.15-.88-88.3-14.76-21.94-13.75-26.61-39.96-28.1-64.15-.4-6.57.27-13.28,0-19.86,1.33-1.53,6.55,8.78,7.19,9.68,1.96,2.75,6.68,9.68,9.84,10.41,3.4.79,5.82-.56,8.81-.62,12.86-.26,29.9,1.54,42.05.05,1.85-.23,6.82-2.02,7.78-3.47,2.48-3.73-2.35-7.8-2.23-11.84,4.1-3.12,8.6-2.7,13-3.64,22.61-4.81,45.81-8.65,68.63-13.12,5.27-1.03,9.74-.69,14.42-3.96-.38-1.35-3.7-1.45-4.84-1.52-11.41-.75-23.75.42-35.31.06-14.3-.45-30.84-3.04-45-2.31-5.31.27-11.15,1.98-16.44,2.31-10.91.68-18.02-1.47-28.69,2.06-5.84,1.93-18.73,6.78-24.25,5.07-3.81-1.18-3-4.67-2.96-7.91,3.97-.59,7.8.84,11.64.81,26.5-.22,51.63-12.52,78-14.3,13.84-.93,28.08.24,41.98-.77,7.18-.52,18.51-.79,24.01-5.24,8.79-7.13-2.9-10.33-5.46-17.03-7.18-18.78,17.89-15.64,22.4-26.03.48-1.11,1.91-5.1-.43-4.94-9,.6-17.93,2.7-27,2.27-18.32,3.09-37.1,2.65-55.45,5.3-15.25,2.2-30.59,7.16-45.9,8.85-8.54.95-18.36.16-26.9.85-7.15.58-14.02,3.09-21,4.48-3.3-.3-5.31-10.48,1.47-11.26,21.78-2.51,45.43.26,67.42-3.08,17.22-2.62,33.52-10.18,51.1-11.15,13.1-.72,31.7,4.65,43.04-1.21,8.44-4.36,4.1-10.66,5.71-18.29l12.68-6.03c3.35.3-1.89,21.97,1.52,24.86,4.71,1.29,8.9-2.53,10.52-6.86,3.56-9.5,4.52-27.35,4.92-37.83.4-10.22,1.17-27.9-.01-37.55-2.2-17.99-18.84-4.92-28.89-4.8-6.63.08-12.75-2.46-18.77-3.05-20.4-2-37.78,6.12-56.96,7.52-32.4,2.36-67.52-3.7-99.57,2.43-2.64.5-4.79,2.04-7.71,2.1-7.53.17-11.2-6.46-8.61-13.17,2.22-5.73,6.08-1.44,10.29-.58,18.61,3.8,65.73.58,85.13-2.99,7.14-1.31,14.66-5.74,21.94-6.56,24.99-2.82,52.01,2.12,75.68-.82,12.8-1.59,14.72-14.07,15.47-25.03,4.18-61.88-25.95-178.64-107.68-169.18-2.65.31-4.84,2.3-7.85,1.52l6.34-3.78c19.84-8.61,44.17-1.44,61.84,9.47,32.4,20.01,52.01,62.01,59.11,98.39,4.18,21.4,3.24,41.29,3.92,62.83,2.26,70.86,11.75,146.18-1.67,216.52-3.74,19.61-10.38,45.68-23.34,61.04Z"></path>
  <path d="M273.86,192.87c3.17-1.01,5.49,1.65,8.14,2.51,15.43,4.96,41.25,6.48,57.41,4.92,3.9-.38,8.8-2.87,12.9-3.6,8.1-1.45,17.06-1,25.34-.97,18.35.07,38.45-1.28,56.96-2.98,12.01-1.1,16.3-1.95,23.64-11.61,1.43-1.88,1.05-4.69,4.12-5.61,2.76,6.02,9.91,19.92,7.3,26.04-2.4,5.63-12.51,3.01-16.88,4.12-1.51.39-4.92,2.83-6.92,3.58-14.71,5.55-42.76,7.55-58.47,5.2-2.07-.31-4.31-1.78-6.88-2.12-30.66-4.06-61.37-.26-91.64-6.61-10.36-2.18-24.38,3.33-15.04-12.86Z"></path>
  <path d="M264.1,244.4c-.42-.64-.25-5.04.27-5.91,1.65-2.81,13.9-.37,17.05.22,5.04.94,11.03,3.22,16.15,4.1,24.76,4.25,60.62.28,86.07-2.05,19.85-1.82,46.13-3.65,64.85-10.15,5.97-2.07,20.45-11.83,25.79-10.01l1.1,1.15c.99,3.46.36,7.84.92,11.08.67,3.9,4.65,7.91,2.21,11.28s-11.76,5.08-16.14,5.62c-36.8,4.52-78.16-2.79-114.77-.02-6.83.52-13.67,3.34-20.42,4.33-16.54,2.4-34.31,1.13-50.08-4.26-1.64-.56-12.61-4.79-12.99-5.38Z"></path>
  <path d="M195.75,672.38c-.06-.2-2.64-2.82-3.02-3-3.18-1.47-5.95,1.08-7.84,3.39-.08,4.51-.98,9.46-1.17,13.83-.12,2.8,1.41,10.65-.7,12.06-3.86-.05-15.62,2.35-16.51-2.3-1.2-6.33,1.48-18.17-.18-23.82-1.23-4.2-7.51-4.37-10.12-1.06-2.25,2.86-.33,19.07-1.05,24.12-.19,1.31-1,3.42-2.56,3.42h-15.38c.24-.74-.75-1.63-.75-1.88v-39c.48-.77,1.03-.95,1.88-1.11,2.79-.52,12.19-.65,14.55.43,1.08.5,2.1,2.3,3.45,2.31s2.59-2.03,3.95-2.55c8.34-3.18,16.27-2.35,23.03,3.54,2.92-.91,4.2-2.92,7.3-3.96,10.93-3.68,22.41-.78,23.76,11.94.45,4.23.77,24.97-.24,28.07-.6,1.82-1.22,2.04-3,2.25-2.33.28-15.42.62-15.42-1.92v-24.75Z"></path>
  <path d="M429.38,657l7.5,21.74c3.82-2.73,6.35-20.4,9.87-21.62l14.51.25,7.88,20.64c1.4.1,1.75-1.28,2.24-2.26,1.58-3.15,4.38-16.89,5.93-18.07,5.82-1.28,12.48-1.14,18.47-.33.97.67.58,1.07.42,1.93-2.09,11.28-9.19,24.13-11.65,35.65-.49,1.12-2.03,3.25-3.07,3.68-2.03.85-17.38.76-19.05-.42-3.01-2.12-6.85-19.4-9.06-19.43-2.99,3.78-5.4,18.18-9.39,19.84-2.05.85-17.38.75-19.05-.41-1.02-.71-6.69-16.14-7.56-18.69-1.47-4.33-3.14-9.81-4.49-14.26-.42-1.4-2.55-8.24-.76-8.24h17.25Z"></path>
  <path d="M289.5,337.88c.66-1.07,1.5-1.04,2.59-1.16,8.21-.96,18.38.57,26.98-.02,34.3-2.35,67.24-10.91,102.05-8.93,14.22.81,27.41,3.15,41.85-.17,6.95-1.6,1.42-6.63,1.28-10.34,7.39-.06,13.36-2.04,19.85-5.28,1.22-.06,4.38,22.19,2.65,24.02-1-.43-1.39-1.23-2.64-1.48-15.88-3.18-42.92,1.65-59.94,2.26-12.83.45-27.25-1.16-39.77-.02-6.06.55-13.53,3.25-19.72,4.28-14,2.33-28.1,4.31-41.87,6.88-10.54,1.96-21.05,3.91-31.46,6.61-.54-.09-1.84-2.12-1.84-2.4v-14.25Z"></path>
  <path d="M612,665.62c.08.6,1.07,1.6.76,2.62,5.09-1.39,7.77-7.09,11.62-9.75,4.8-3.33,18.23-1.01,24.37-1.5.81.7-2.02,3.2-2.6,3.77-1.76,1.72-12.88,10.5-12.97,11.6l18.48,24.87-1.04,1.77h-21c-4.86,0-10.44-22.15-16.7-9.2-1.36,2.82-.12,7.71-2.42,8.83-1.8.88-15.52.88-16.51-.94l-.02-55.16c1.26-2.05,15.57-1.54,18.02.6.65,7.09-.88,15.61,0,22.5Z"></path>
  <path d="M503.62,669c-4.59-1.36,3.54-9.98,6.61-11.39,9.04-4.16,35.42-4.58,42.89,2.4,2.35,2.2,4.88,7.81,4.88,10.87v27l-1.12,1.12h-14.25c-.27,0-2.3-2.95-4.5-2.95-1.57,0-6.9,3.2-10.6,3.6-12.4,1.34-31.87,1.09-28.6-16.61,2.82-15.25,36.08-7.41,39.24-13.29.56-6.06-8.84-5.97-13.04-4.76-2.25.65-5.4,4-5.75,4-3.33,0-13.48.68-15.75,0ZM520.72,689.02c1.79,1.45,9.51,1.31,11.82.63,3.43-1.01,9.96-8.79,4.13-9.44-2.95-.33-16.96.49-17.69,3.56-.27,1.53.59,4.31,1.75,5.25Z"></path>
  <path d="M277.21,691.97c-7.71,10.03-36.21,9.91-46.41,4.6-10.86-5.65-12.26-22.1-6.7-31.84,7.26-12.73,38.58-12.42,49.43-4.88,9.21,6.4,10.21,23.63,3.68,32.12ZM259.87,670.88c-5.11-5.69-17.98-4.71-19.15,3.71-1.34,9.63,4.04,14.99,13.74,12.99,7.45-1.54,9.93-11.66,5.41-16.7Z"></path>
  <path d="M338.72,660.29c9.16,6.94,10.29,25.98,1.4,33.46-10.14,8.54-40.19,8.92-49.53-.72-6.49-6.71-6.28-24.49.37-31.18,9.22-9.28,37.68-9.19,47.75-1.56ZM311.78,667.66c-4.01.91-6.7,6.02-6.59,9.97.39,15.23,22.74,12.66,21.78-.66-.59-8.23-7.79-10.98-15.19-9.3Z"></path>
  <path d="M367.12,657c.25,0,.85-.98,1.87-.44s1.24,2.28,1.66,2.53c2.43,1.44,9.09-3.08,12.27-3.54,6.92-1.01,19.95,1.45,21.92,9.49,1.51,6.15,1.48,21.77.94,28.37-.13,1.55-.42,4.96-2.01,5.49-1.09.37-11.91.37-13.38.09-2.37-.45-3.17-2.75-3.41-4.84-.49-4.22,1.21-20.93-1.24-22.94-.47-.39-4.51-2.13-5.19-2.2-4.58-.47-9.3,4.14-9.3,8.62v19.5c0,.17-2.34,1.88-2.62,1.88h-14.62c.24-.74-.75-1.63-.75-1.88v-39l1.12-1.12c4.25.03,8.5-.04,12.75,0Z"></path>
  <path d="M442.77,164.73c1.08,1.13,3.43,2.67,4.92,3.35.13,1.22-.8,3.14-1.94,3.54-1.61.55-9.63,1.43-11.88,1.62-17.53,1.46-31.74-.73-48.71-1.52-24.02-1.12-48.09-.42-72.02-2.23-.8-.06-4.89-.75-4.89-1.12,9.63-.15,19.25-1.35,28.85-1.91,9.94-.57,20.02-.15,29.94-1.56,20.27-2.87,42.23-14.32,63.09-11.91,8.13.94,8.29,7.16,12.64,11.73Z"></path>
  <path d="M674.26,663c5.37-4.3,13.97-9.81,21.24-7.38,2.81.94,2.53,13.03,1.44,15.44-1.4,3.11-3.39.5-5.88.25-3.92-.39-11.48.55-14.25,3.63-4.96,5.5-.52,21.61-4.06,23.69-1.2.71-13.49.64-14.99-.03s-2.11-2.24-2.31-3.69c-.9-6.87.53-14.94.64-21.79.05-3.15-2.4-14.71,1.4-15.99,4.03-1.36,10.44.37,14.77-.03l1.98,5.9Z"></path>
  <path d="M570.56,641.43c2.39-.44,10.79-.62,12.51.62,1.31.94,1.82,6.49,1.96,8.54.96,14.39-.81,29.81,0,44.32.3,5.45-12.66,4.75-16.17,4.09-2.17-.41-2.66-5.78-2.69-7.88-.12-9.83.7-20.13.54-30.13-.09-5.7-3.28-18.27,3.84-19.56Z"></path>
  <path d="M302.25,165.76c.2,1.5.14,1.23-.93,1.68-2,.85-15.22.98-16.32-.2s.36-1.28.96-1.67c2.7-1.74,6.51-3.41,9.75-2.66,2.15.49,3.86,3.25,6.53,2.85Z"></path>
  <path d="M520.72,689.02c-1.16-.94-2.02-3.73-1.75-5.25.73-3.07,14.74-3.89,17.69-3.56,5.84.65-.7,8.43-4.13,9.44-2.3.68-10.02.82-11.82-.63Z" class="st0"></path>
  <path d="M259.87,670.88c4.52,5.04,2.04,15.16-5.41,16.7-9.7,2-15.08-3.36-13.74-12.99,1.17-8.42,14.04-9.4,19.15-3.71Z" class="st0"></path>
  <path d="M311.78,667.66c7.41-1.68,14.6,1.08,15.19,9.3.95,13.32-21.39,15.89-21.78.66-.1-3.95,2.58-9.06,6.59-9.97Z" class="st0"></path>
</svg>