<svg viewBox="0 0 810 810" version="1.1" xmlns="http://www.w3.org/2000/svg" id="Layer_1">
  
  <defs>
    <style>
      .st0 {
        fill: #d61d2d;
      }

      .st1 {
        fill: #d6646e;
      }

      .st2 {
        fill: #fefefe;
      }
    </style>
  </defs>
  <path d="M810,0v810H0V0h810ZM510,504.75c.37.33,3.07,5.25,4.88,5.25h167.62c.06,0-.13-.84.27-1.23s1.23-.2,1.23-.27v-33c-8.17-2.05-17.69.22-25.89-.73-1.01-.12-4.11-.97-4.11-1.89v-16.88c0-.15,2.47-1.5,2.62-1.5h57.38c.06,0-.13-.84.27-1.23s1.23-.2,1.23-.27v-32.62c0-.75-2.62-3.38-3.38-3.38h-57c-.08,0-1.12-1.05-1.12-1.12v-16.12c.74.24,1.63-.75,1.88-.75h75c.08,0,1.12,1.05,1.12,1.12v23.25c0,1.21,3.75,1.81,4.84,1.91,9.39.86,26.56.7,36.07,0,1.38-.1,2.74-.24,3.99-.89-.12-2.37.78-4.66.89-6.98.68-14.89.26-32.43-.71-47.36-.18-2.8,2.11-6.27-2.71-7.78l-200.8.17c-1.49.4-3.43.56-3.57,2.43.98,9.57-1.27,21.55-.03,30.8.13.99.96,3.34,1.91,3.34h25.5c.08,0,1.12,1.05,1.12,1.12v72.75c0,.08-1.05,1.12-1.12,1.12h-50.25c-6.19-4.87-12.33-10.25-18.01-15.77-1.39-1.35-5.57-5.34-2.09-6.58,3.74-1.32,7.38-1.52,11.39-3.61,12.29-6.4,19.21-20.2,20.32-33.68,2.46-29.74-11.59-46.22-40.17-52.05l-266.17-.05c-2.77.53-5.71,8.5-6.76,11.24-5.04,13.15-9.33,31.74-15.35,43.9-3.13,6.33-4.78-1.82-6.05-5.27-5.46-14.86-9.73-32.71-16.11-46.89-.54-1.2-1.03-2.36-2.39-2.86l-115.36-.15c-2.11.39-3.16,3.67-3.39,5.61-.65,5.44-.71,21.69-.02,27.05.08.64,1.32,4.09,1.54,4.09h38.62c.26,0,1.16.9,1.85.79.88,1.23-3.41,8.02-4.09,9.72-5.61,13.99-11.14,29.15-17.12,43.63-1.44,3.48-7.28,19.48-9.52,20.48-3.69,1.65-11.49-.39-15.36-.36-1.28,0-2.49.7-3.76.75-1.89.07-10.11-.71-10.11,1.88v33.75c0,.08,1.05,1.12,1.12,1.12h100.5c.92,0,4.88,1.4,4.88-1.88v-33.75c0-.08-1.05-1.12-1.12-1.12h-19.88c.62-6.01,4.12-11.09,6.37-16.5,2.83-6.8,5.71-16.21,9.06-22.44.42-.78,2-2.52,2.93-2.31l30.55,77.08,42.06.18c4.07-4.81,5.19-11.23,7.43-16.74,6.4-15.76,14.14-32.75,19.51-48.74.49-1.46.81-2.72.59-4.28.75-1.46,1.65-4.3,2.25-6,1.57-.37,3.65-1.52,4.88,0l18.38,38.61c-.39,2.07-14.15.9-16.91,1.11-1.86.14-3.66.64-5.49.88-1.33,1.33-1.31,33.46.04,35l3.32.8c56.68.26,113.9-.09,170.16.16,4.32.02,5.38-.77,5.67-4.91.27-3.89.39-28.15-.72-29.91-2.05-3.25-25.56.64-28.38-2.18-1.3-1.3-1.39-16-.54-17.81.17-.35,1.36-1.51,1.49-1.51h26.25c.85,0,7.98,7.84,9.22,8.96,15.56,13.91,31.94,27.72,47.4,41.29Z" class="st2"></path>
  <path d="M273,440.25c-2.95,5.75-5.51,13.91-9.27,20-.41.66-2.59,1.72-2.7,2.29-.63,3.32-.83,7.65-1.7,10.91-1.17,4.34-7.1,13.31-7.29,14.52-1.29,8.43-1.16,5.53-4.5,12.14-.57,1.13-1.28,6.58-2.04,6.92l-41.33-.2c-2.09-5.73-4.15-10.91-6.25-16.48-1.43-3.8-3.08-7.61-4.66-11.99-2.02-5.64-3.61-10.51-5.77-15.84-.17-.42-1.35-.42-1.49-1.03-.32-1.48.45-4.52-.11-5.38-.31-.49-2.48-.46-2.8-.95-.59-.91.24-4.52-.11-6.13-.11-.52-4.16-7.68-4.71-8.94-1.05-2.42-1.87-3.82-2.74-5.64-.52-1.08.5-3.97-2.06-4.57-5.89-1.38-4.48,6.04-5.65,7.96-.28.46-1.69.59-2.13,1.21-1.58,2.2-2.74,7.99-3.77,10.37-2.53,5.86-6.49,11.92-8.87,17.68-.54,1.3-1.06,5.12-.81,6.51.17.97,2.15,3.41,2.63,3.41h17.25c.23,0,.58-.95,1.12-.75v31.5l-101.25-.75v-30c8.71-1.7,22.16,2.58,29.7-1.82.18-.11,3.01-2.67,3.08-2.86.54-1.47-.1-3.07.39-4.52,2.51-7.45,9.04-18.51,10.32-24.3s.79-2.83,2.47-6.39c.78-1.65.21-3.21.58-4.55.09-.31,2.15-4.12,2.74-5.61,2.58-6.49,6.81-14.34,9.15-21.02.32-.91,1.66-5.88,1.6-6.41-.03-.22-2.57-2.28-2.65-3.5h-40.12v-30.75l115.65.82c2.71,1.48,1.63,3.26,2.31,5.33,3.5,10.75,8.91,21.12,11.73,31.17,1.35,4.81,2.55,9.93,3.98,14.63.53,1.75,3.36,5.83,5.47,5.87.27,0,4.08-3.33,4.14-3.6,1.08-4.94,2.92-8.56,4.58-13.28,3.7-10.53,6.61-21.4,10.74-31.97,1.03-2.64,2.23-5.28,2.82-8.06,5.01-.97,11.43-1.5,16.68-1.71,32.88-1.27,66.34.75,99.04.78,43.09.03,86.35-1.38,129.77-.78,13.42.19,25.08-.8,37.24,4.62,5.2,2.32,11.59,5.9,15.36,10.71,9.22,11.75,10.6,36.65,4.47,49.71-.47.99-8.21,12.05-8.79,12.56-2.88,2.51-9.02,4.73-12.51,6.22-.91.39-.86,1.58-1.45,1.71-2.32.49-8.78-1.13-8.52,3.31.02.35,1.05.46,1.45,1.06,2.17,3.25,2.09,1.96,3.57,3.41,5.83,5.74,11.71,11.62,17.14,17.73h55.12l.6-75.97c-.41-1.23-1.26-1.77-2.5-2-7.92-1.48-18.05,2.03-25.85-1.52v-30c0-.29,4.62-1.45,5.58-1.54,6.79-.59,17.32.08,24.76,0,57.35-.59,115.07.16,172.25.47-.05,1.41,1.41,4.27,1.41,5.19v51.38c0,.06-.84-.13-1.23.27s-.2,1.23-.27,1.23h-40.5v-22.12c0-.43-1.54-3.38-1.88-3.38h-78.38c-.36,4.98-1.87,15.18-.76,19.72.05.21,3.17,2.78,3.39,2.78h56.62v33c-16.62-.22-33.28.27-49.91.03-1.36-.02-10.09-1.72-10.09,1.09v21c0,2.27,4.52,3.23,6.39,3.36,3.28.23,21.15-1.7,22.12-.74-.17,9.98,2.01,20.1,0,30h-166.88c-.19,0-1.65-1.82-2.26-2.27-.68-.51-1.68-.57-1.87-.73-9.81-8.05-18.75-19.35-28.33-27.76-1.31-1.15-7.43-6.93-7.93-7.22-1.25-.72-3.48-.65-4.05-1.23-.35-.35-.24-1.58-.99-2.35-4.6-4.67-10.45-8.02-14.18-13.59-10.43-1.99-21.04-.7-31.51.39v21.38c0,.31,2.51,3.38,3.38,3.38h24.75c2.37,0,.4,7.73.34,9.34-.23,7.24.8,14.32.03,21.41h-172.88c-3.46,0-1.88-3.5-1.88-4.12v-27.75c0-.08,1.05-1.12,1.12-1.12h20.25c2.13,0,1.53-4.76,1.06-6.18-.2-.6-1.1-.49-1.38-1.14-3.34-7.79-7.54-17.52-11.27-24.73-1.98-3.82-4.28-7.42-6.23-11.25-1.22-.61-3.45-1.07-4.6-.28-.96.66-.25,1.75-.45,2.32-.6,1.7-1.5,4.54-2.25,6ZM377.09,396.16c-.34-.19-6.58-.89-7.69-.95-10.34-.53-24.6-.09-35.31,0-3.33.03-7.42,1.35-11.07.93-2.45.72-2.29,4.11-1.98,6.18.8,5.46,6.08,12.22,8.4,17.1,5.11,10.78,8.56,24.15,13.84,35.63.39.85,1.59.89,1.71,1.45.32,1.54-.26,3.34.04,4.94.12.63,2.8,1.93,2.94,2.59.68,3.14.63,2.47,1.46,4.54.54,1.36.48,2.77,1.36,4.46.3.57,4.21,3.86,4.5,3.92,2,.44,17.98.44,20.07.02s2.39-2.54,4.12-3.52l.06-72.64c.16-.9-2.15-4.5-2.45-4.67ZM423,397.88c-1.31,4.66.97,15.26,0,20.62,2.14.21,3.23,1.31,5.57,1.55,20.86,2.2,45.57-1.8,66.85,0,1.45-2.26,7.39-1.5,8.43-3.22.36-.6-.06-1.76.2-2.22.43-.77,1.17-.55,1.51-1.7.85-2.97,1.09-6.95.06-9.89-.33-.95-1.25-.99-1.37-1.27-.39-.83-.11-1.91-.49-2.52-.17-.27-3.47-3.23-3.86-3.28l-75.39.43c-.35.16-1.44,1.24-1.51,1.49Z" class="st0"></path>
  <path d="M273,440.25c.23,1.56-.09,2.82-.59,4.28-5.37,15.99-13.11,32.98-19.51,48.74-2.24,5.51-3.36,11.93-7.43,16.74l-42.06-.18-30.55-77.08c-.93-.21-2.51,1.52-2.93,2.31-3.35,6.23-6.24,15.64-9.06,22.44-2.25,5.42-5.75,10.5-6.37,16.5h19.88c.08,0,1.12,1.05,1.12,1.12v33.75c0,3.27-3.95,1.88-4.88,1.88h-100.5c-.08,0-1.12-1.05-1.12-1.12v-33.75c0-2.58,8.23-1.81,10.11-1.88,1.27-.05,2.48-.74,3.76-.75,3.87-.03,11.67,2.01,15.36.36,2.24-1,8.08-17,9.52-20.48,5.99-14.48,11.52-29.64,17.12-43.63.68-1.7,4.97-8.49,4.09-9.72-.69.12-1.59-.79-1.85-.79h-38.62c-.22,0-1.46-3.45-1.54-4.09-.69-5.37-.63-21.61.02-27.05.23-1.94,1.28-5.22,3.39-5.61l115.36.15c1.36.5,1.85,1.66,2.39,2.86,6.38,14.17,10.65,32.02,16.11,46.89,1.27,3.46,2.92,11.6,6.05,5.27,6.02-12.16,10.31-30.75,15.35-43.9,1.05-2.74,3.98-10.71,6.76-11.24l266.17.05c28.58,5.83,42.63,22.31,40.17,52.05-1.11,13.48-8.03,27.27-20.32,33.68-4.01,2.09-7.66,2.29-11.39,3.61-3.48,1.23.7,5.23,2.09,6.58,5.68,5.53,11.82,10.9,18.01,15.77h50.25c.08,0,1.12-1.05,1.12-1.12v-72.75c0-.08-1.05-1.12-1.12-1.12h-25.5c-.95,0-1.78-2.35-1.91-3.34-1.25-9.25,1.01-21.23.03-30.8.14-1.87,2.08-2.03,3.57-2.43l200.8-.17c4.82,1.51,2.53,4.98,2.71,7.78.97,14.93,1.39,32.47.71,47.36-.11,2.32-1,4.61-.89,6.98-1.24.66-2.6.79-3.99.89-9.51.71-26.68.86-36.07,0-1.09-.1-4.84-.7-4.84-1.91v-23.25c0-.08-1.05-1.12-1.12-1.12h-75c-.25,0-1.14.99-1.88.75v16.12c0,.08,1.05,1.12,1.12,1.12h57c.75,0,3.38,2.62,3.38,3.38v32.62c0,.06-.84-.13-1.23.27s-.2,1.23-.27,1.23h-57.38c-.15,0-2.62,1.35-2.62,1.5v16.88c0,.92,3.1,1.77,4.11,1.89,8.2.96,17.72-1.31,25.89.73v33c0,.06-.84-.13-1.23.27s-.2,1.23-.27,1.23h-167.62c-1.81,0-4.5-4.92-4.88-5.25-15.46-13.58-31.84-27.38-47.4-41.29-1.25-1.12-8.38-8.96-9.22-8.96h-26.25c-.13,0-1.32,1.16-1.49,1.51-.85,1.81-.76,16.51.54,17.81,2.82,2.82,26.33-1.07,28.38,2.18,1.11,1.76.99,26.01.72,29.91-.29,4.13-1.35,4.92-5.67,4.91-56.26-.24-113.48.1-170.16-.16l-3.32-.8c-1.34-1.54-1.37-33.67-.04-35,1.84-.24,3.63-.74,5.49-.88,2.75-.21,16.52.95,16.91-1.11l-18.38-38.61c-1.23-1.51-3.31-.37-4.88,0,.2-.58-.51-1.66.45-2.32,1.15-.79,3.38-.33,4.6.28,1.95,3.82,4.25,7.42,6.23,11.25,3.73,7.21,7.93,16.95,11.27,24.73.28.65,1.18.53,1.38,1.14.47,1.42,1.07,6.18-1.06,6.18h-20.25c-.08,0-1.12,1.05-1.12,1.12v27.75c0,.62-1.59,4.12,1.88,4.12h172.88c.77-7.08-.26-14.17-.03-21.41.05-1.61,2.03-9.34-.34-9.34h-24.75c-.86,0-3.38-3.07-3.38-3.38v-21.38c10.47-1.09,21.08-2.38,31.51-.39,3.73,5.58,9.58,8.92,14.18,13.59.76.77.65,1.99.99,2.35.57.58,2.8.5,4.05,1.23.5.29,6.63,6.07,7.93,7.22,9.58,8.41,18.52,19.71,28.33,27.76.19.16,1.19.22,1.87.73.61.46,2.06,2.27,2.26,2.27h166.88c2.01-9.9-.17-20.02,0-30-.96-.96-18.83.97-22.12.74-1.87-.13-6.39-1.09-6.39-3.36v-21c0-2.81,8.74-1.11,10.09-1.09,16.63.24,33.29-.25,49.91-.03v-33h-56.62c-.22,0-3.34-2.57-3.39-2.78-1.11-4.54.4-14.74.76-19.72h78.38c.34,0,1.88,2.95,1.88,3.38v22.12h40.5c.06,0-.13-.84.27-1.23s1.23-.2,1.23-.27v-51.38c0-.92-1.47-3.78-1.41-5.19-57.18-.31-114.9-1.06-172.25-.47-7.44.08-17.97-.6-24.76,0-.96.08-5.58,1.25-5.58,1.54v30c7.8,3.55,17.94.04,25.85,1.52,1.23.23,2.08.78,2.5,2l-.6,75.97h-55.12c-5.43-6.11-11.31-11.99-17.14-17.73-1.47-1.45-1.4-.16-3.57-3.41-.4-.6-1.43-.71-1.45-1.06-.27-4.43,6.19-2.82,8.52-3.31.58-.12.53-1.32,1.45-1.71,3.49-1.5,9.63-3.71,12.51-6.22.58-.5,8.32-11.57,8.79-12.56,6.13-13.06,4.75-37.97-4.47-49.71-3.77-4.81-10.16-8.4-15.36-10.71-12.16-5.42-23.82-4.43-37.24-4.62-43.42-.6-86.69.81-129.77.78-32.7-.03-66.16-2.05-99.04-.78-5.25.2-11.67.74-16.68,1.71-.59,2.78-1.79,5.42-2.82,8.06-4.13,10.57-7.04,21.44-10.74,31.97-1.66,4.72-3.5,8.34-4.58,13.28-.06.27-3.86,3.6-4.14,3.6-2.11-.03-4.94-4.11-5.47-5.87-1.43-4.7-2.63-9.82-3.98-14.63-2.82-10.06-8.23-20.42-11.73-31.17-.67-2.07.4-3.85-2.31-5.33l-115.65-.82v30.75h40.12c.08,1.22,2.62,3.28,2.65,3.5.06.53-1.28,5.5-1.6,6.41-2.34,6.68-6.57,14.53-9.15,21.02-.59,1.49-2.66,5.3-2.74,5.61-.37,1.35.2,2.9-.58,4.55-1.68,3.57-1.16.48-2.47,6.39s-7.81,16.86-10.32,24.3c-.49,1.45.15,3.05-.39,4.52-.07.2-2.9,2.76-3.08,2.86-7.54,4.4-20.99.12-29.7,1.82v30l101.25.75v-31.5c-.55-.2-.9.75-1.12.75h-17.25c-.48,0-2.45-2.44-2.63-3.41-.25-1.39.28-5.21.81-6.51,2.38-5.76,6.34-11.82,8.87-17.68,1.03-2.38,2.19-8.17,3.77-10.37.45-.62,1.86-.75,2.13-1.21,1.17-1.93-.24-9.35,5.65-7.96,2.57.6,1.55,3.49,2.06,4.57.87,1.82,1.69,3.22,2.74,5.64.55,1.27,4.59,8.42,4.71,8.94.35,1.61-.48,5.22.11,6.13.32.49,2.49.47,2.8.95.56.87-.21,3.9.11,5.38.13.62,1.31.61,1.49,1.03,2.17,5.33,3.75,10.2,5.77,15.84,1.57,4.38,3.23,8.19,4.66,11.99,2.09,5.57,4.16,10.75,6.25,16.48l41.33.2c.76-.35,1.47-5.79,2.04-6.92,3.34-6.61,3.21-3.7,4.5-12.14.18-1.21,6.12-10.18,7.29-14.52.88-3.26,1.07-7.59,1.7-10.91.11-.57,2.29-1.63,2.7-2.29,3.77-6.09,6.32-14.25,9.27-20Z" class="st1"></path>
  <path d="M377.09,396.16c.3.17,2.61,3.76,2.45,4.67l-.06,72.64c-1.74.98-2.08,3.11-4.12,3.52s-18.06.42-20.07-.02c-.29-.06-4.2-3.35-4.5-3.92-.88-1.68-.82-3.09-1.36-4.46-.82-2.07-.77-1.4-1.46-4.54-.14-.65-2.82-1.95-2.94-2.59-.3-1.6.27-3.41-.04-4.94-.11-.56-1.32-.6-1.71-1.45-5.28-11.48-8.73-24.85-13.84-35.63-2.31-4.88-7.6-11.65-8.4-17.1-.3-2.07-.46-5.46,1.98-6.18,3.64.42,7.74-.9,11.07-.93,10.71-.09,24.98-.53,35.31,0,1.11.06,7.35.76,7.69.95ZM376.5,472.5v-71.62c0-1.21-3.75-1.81-4.84-1.91-11.5-1.06-31.87-.79-43.57,0-.82.06-3.99.35-4.12,1.21,10.36,24.11,19.95,48.61,31.19,72.29,2.08,2.24,9.91.77,13.49.76,1.57,0,3.18.9,4.44.77.24-.02,3.31-1.33,3.4-1.49Z" class="st1"></path>
  <path d="M423,397.88c.07-.25,1.17-1.33,1.51-1.49l75.39-.43c.38.05,3.68,3.01,3.86,3.28.39.61.11,1.68.49,2.52.13.28,1.04.32,1.37,1.27,1.03,2.94.79,6.92-.06,9.89-.33,1.15-1.08.93-1.51,1.7-.26.46.16,1.63-.2,2.22-1.04,1.73-6.98.96-8.43,3.22-21.28-1.81-45.99,2.19-66.85,0-2.34-.25-3.43-1.34-5.57-1.55.97-5.37-1.31-15.97,0-20.62ZM427.12,416.25h71.25c4.89,0,6.71-14.77-.34-16.91h-70.6c-.7.21-1.06.28-1.44.97-1.06,1.98-1.36,15.19,1.13,15.94Z" class="st1"></path>
  <path d="M376.5,472.5c-.1.16-3.17,1.47-3.4,1.49-1.26.12-2.87-.78-4.44-.77-3.58.01-11.41,1.48-13.49-.76-11.25-23.68-20.84-48.18-31.19-72.29.13-.85,3.3-1.15,4.12-1.21,11.7-.79,32.07-1.06,43.57,0,1.09.1,4.84.7,4.84,1.91v71.62Z" class="st2"></path>
  <path d="M427.12,416.25c-2.49-.75-2.19-13.96-1.13-15.94.37-.7.73-.77,1.44-.97h70.6c7.04,2.14,5.22,16.91.34,16.91h-71.25Z" class="st2"></path>
</svg>