<svg viewBox="0 0 810 810" version="1.1" xmlns="http://www.w3.org/2000/svg" id="Layer_1">
  
  <defs>
    <style>
      .st0 {
        fill: #010101;
      }

      .st1 {
        fill: #fd0000;
      }

      .st2 {
        fill: #f90202;
      }

      .st3 {
        fill: #020003;
      }

      .st4 {
        fill: #f80201;
      }

      .st5 {
        fill: #f0a09f;
      }

      .st6 {
        fill: #ef9697;
      }

      .st7 {
        fill: #f90201;
      }

      .st8 {
        fill: #fa0203;
      }

      .st9 {
        fill: #fdfdfd;
      }
    </style>
  </defs>
  <rect height="810" width="810" class="st9"></rect>
  <path d="M43.71,336.21c1.02-1.02,3.87-1.74,5.38-1.75l151.13.45c3.92,1.92,4.29,4.13,4.57,8.18,2.79,40.35-2.18,83.88,0,124.56-.01,3.3-1.37,6.18-4.49,7.51H46.46s-3.89-3.61-3.89-3.61c-1.35-43.19-.14-86.67-.61-129.97.01-1.51.73-4.36,1.75-5.38Z" class="st1"></path>
  <path d="M579,391.5c-1.62,2.07-4.13,4.27-2.18,7.03,10.76,16.36,20.32,33.58,31.11,49.9.48.72,4.11,6.6,4.8,6.06,8.01-21,17.24-41.52,25.9-62.26.33-.8.17-1.79.35-2.24l1.66-1.5,42.3-.06c2.27.27,3.27,2.24,1.04,3.06l-30.85,83.9-83.9-.27-37.36-57.89-2-1.75.37,60.01h-47.25c-.03-28.49.04-57.01,0-85.5l.52-1.5,90.88-.03c2.84.15,4.37,1.16,4.6,3.03Z"></path>
  <path d="M409.5,375c-4.09.74-8.22,1.46-12.38,1.51-11.06.14-22.32.14-33.08-.02-.54,0-1.09-.24-1.65-.5s-1.11-.62-1.63-1c-14.24.01-28.51,0-42.75,0-12.84,2.1-27.41,2.18-40.57,1.51-2.3-.12-4.52-.75-6.68-1.51-16.74-.05-33.51.04-50.25,0v-38.62c0-.08,1.05-1.12,1.12-1.12h162.75c2.97,3.11,5.08,6.99,7.44,10.56,6.12,9.29,11.51,20.24,17.69,29.19Z" class="st0"></path>
  <path d="M732,390c11.89,28.43,23.74,56.91,35.25,85.5h-49.88l-31.12-84c-1.77-.1-1.77-1.42-.36-2.66,1.72-1.5,43.66-1.05,45.46.34.27.21.47.5.65.82Z"></path>
  <path d="M372,390.75c-1.34-1.72.1-2.26,1.92-2.34,26.56-.46,53.13-.46,79.73.01,1.84.03,2.12,1.05.85,3.08-7.27,11.35-14.11,23-21.75,34.12v49.88h-37.5v-49.88c-8.1-11.36-15.3-23.44-23.25-34.88Z"></path>
  <path d="M271.5,390l3.12-1.35,36.31-.47c4.58-.7,6.94.4,7.07,3.32v84h-46.5c-.34-28.48.45-57.03,0-85.5Z"></path>
  <path d="M418.5,375c9.15-13.03,16.25-27.73,25.88-40.5h85.88c.17,13.98-.23,28.02,0,42l-1.43.91c-13.94-1.84-28.01-1.91-42.2-.22-2.33.25-3.54-.48-3.61-2.19-.01-8.73.31-17.55-.37-26.25-6.21,9.17-12.39,18.44-18.38,27.75l-40.71.07c-1.78-.21-3.45-.74-5.04-1.57Z"></path>
  <path d="M725.25,375l-.52,1.5h-78.08l-.91-1.5c5.57-13.29,10.85-26.74,16.42-40.04l1.17-.52,45.42.42c6.28,13.04,10.89,26.83,16.49,40.14Z"></path>
  <path d="M540,375c10.28-13.09,19.43-27.17,30.38-39.75h52.88c-.24,1.75-1.95,3.42-3.03,4.85-9.37,12.4-19.65,24.17-29.22,36.4-4.93-.09-10.05-.24-15.37-.47l-31.18.69c-1.73.18-3.21-.51-4.45-1.72Z" class="st3"></path>
  <path d="M530.25,376.5c.04,2.35-.17,4.8,0,7.14.06.83-.43,2.48,1.11,1.85.63-.26,7.45-8.99,8.64-10.49,15.31,1.09,32.59-1.45,47.66-.03,1.41.13,2.31.65,3.34,1.53-3.95,5.04-8.07,9.98-12,15l-4.09-1.53-91.91.03c0-4.71,0-10.02,0-15,3.73,1.53,8.36.06,12.34-.04,9.09-.22,22.08-.87,30.8.02,1.61.16,2.77.72,4.11,1.52Z" class="st8"></path>
  <path d="M409.5,375c.62.9,4.11,5.44,4.87,5.25.32-.08,3.61-4.5,4.13-5.25,12.61.31,25.3-.41,37.91-.03,1.76.05,3.71.13,5.46.23,1.43.08,1.51-.56,2.39,1.3-3.19,4.96-6.58,10.04-9.75,15,.42-2.27-1.15-1.44-2.59-1.5-24.62-.97-51.04-.27-75.79-.01-1.27.01-3.34-.48-4.11.76-3.63-5.23-8.36-9.93-11.25-15.75,3.78,0,7.78-.03,11.59-.03,12.38-.02,24.78.08,37.16.03Z" class="st2"></path>
  <path d="M645.75,375h79.5c2.05,4.87,4.62,9.91,6.75,15-1.35.53-2.42.67-3.88.57-4.85-.31-40.16-1.77-41.73-.38-.33.29-.07,1.26-.14,1.31-.1.07-2.15.07-2.25,0s.36-1.83-1.07-1.56l-43.93.06c2.1-5.03,4.69-10.08,6.75-15Z" class="st7"></path>
  <path d="M318,375v16.5c-.71-1.44-1.05-1.43-2.55-1.55-14.05-1.15-29.72.97-43.95.05,0-.1-.78-.88-.8-1.84-.08-4.28,1.5-8.68.05-13.16,15.47.05,31.8,0,47.25,0Z" class="st4"></path>
  <path d="M112.5,373.5c-.71-4.41-.64-8.38.34-12.78.41-1.84,3.65-10.84,4.55-11.95.67-.82,1.17-1,2.22-.78.58.12,5.2,8.4,6.41,9.93,16.13,20.31,39.29,28.38,64.46,19.33.27,36.35-28.83,64.6-60.97,76.64-18.77,7.03-45.42,11.04-65.43,9.63-1.55-.11-3.5-.37-4.84-1.15l37.65-9.6c25.32-7.21,50.94-20.34,62.09-45.52-16.35.47-32.38-.21-47-8.13-8.16-4.42-14.55-11.21-21.99-16.63,2.01,19.25,14.08,32.81,30.38,41.98.74.93.68,1.78-.72,1.48-3.59-.77-12.43-4.77-15.82-6.69-12.09-6.85-23.61-22.9-23.61-37.14v-16.12c3.8.2,7.04,3.96,10.25,5.87,12.86,7.67,30.2,15.56,45.25,16.63,1.21.69,12.23,1.32,12.38.71.25-1.05-.29-1.73-1.13-2.21-12.72-5.45-20.76-18.21-28.12-29.24-1.19-.02-2.98,6.86-3.38,8.24l-.79,5.37c.08,2.81-.03,6.1-2.21,2.13Z" class="st9"></path>
  <path d="M147,387c1.2.52,4.63-.47,4.5,3-5.05-.54-11.31,1.39-15.75-1.5,4.08.29,8.28-.21,12.37,0l-1.12-1.5Z" class="st6"></path>
  <path d="M115.5,366v13.5c-1.64,2.05-2.9-5.37-3-6l1.5,1.12c-.72-3.4.68-5.78,1.5-8.62Z" class="st5"></path>
</svg>