<svg viewBox="0 0 810 810" version="1.1" xmlns="http://www.w3.org/2000/svg" id="Layer_1">
  
  <defs>
    <style>
      .st0 {
        fill: #121415;
      }

      .st1 {
        fill: #fbfbfb;
      }

      .st2 {
        fill: #131415;
      }

      .st3 {
        fill: #f9fafa;
      }

      .st4 {
        fill: #242728;
      }

      .st5 {
        fill: #fdfdfd;
      }
    </style>
  </defs>
  <rect height="810" width="810" class="st5"></rect>
  <path d="M570.75,377.25c-2.74,3.85-18.55,34.5-20.62,34.5h-237.38l18.71,33.21c.33.45,1.54,1.29,1.91,1.29h196.88l-118.13,205.49-79.12-136.49h38.62c13.81,21.52,26.02,44.08,38.73,66.27l1.76,1.23,58.89-101.61-158.08-.94-59.43-102.95h317.25Z" class="st4"></path>
  <path d="M606.75,308.25c.64.6-1.73,4.69-2.24,5.63-4.99,9.26-11.31,17.98-15.71,27.59l-3.4,1.28-354.06.04-2.51-1.24-16.98-29.52-1.1-3.78h396Z" class="st4"></path>
  <path d="M552,254.25v-34.88c0-.08,1.05-1.12,1.12-1.12h15.75c.08,0,1.12,1.05,1.12,1.12v61.12h-19.5l-21.13-34-2.12-1.25v35.25h-18v-61.12c0-.08,1.05-1.12,1.12-1.12h17.25c2.18,0,19.92,32.86,24.38,36Z" class="st0"></path>
  <path d="M372.75,280.5h-18.38c-2.18-1.95-10.89-18.75-12-18.75h-13.12c-1.09,6.28.68,12.41-.75,18.75h-17.25v-62.25h44.62c.35,0,4.96.89,5.67,1.08,8.19,2.19,10.63,7.88,11.23,15.77.48,6.27.68,17.05-3.75,21.81-1.79,1.92-6.76,3.68-6.8,5.18-.09,2.98,10.24,14.17,10.52,18.41Z" class="st0"></path>
  <path d="M297.75,243v11.62c0,.08-1.05,1.12-1.12,1.12h-28.12v11.62c0,.08,1.05,1.12,1.12,1.12h36.38v12h-55.5v-61.12c0-.08,1.05-1.12,1.12-1.12h53.25c1.6,0,1.65,11.57.42,12.42-3,2.09-31.13-1.43-36.47,1.03-.46,1.74-.95,11.3.8,11.3h28.12Z" class="st0"></path>
  <path d="M507,280.5h-19.5c-.95-2.15-3.26-10.53-5-11.13-1.51-.52-19.15-.46-21.67-.16-3.69.43-5.31,8.05-6.33,11.29h-19.5l25.87-61.51c1.66-1.48,17.23-.96,20.28-.01l25.85,61.52Z" class="st2"></path>
  <path d="M393.75,280.5c-3.05-.07-13.79.27-15.79-1.08-1.01-.69-.94-6.84-.74-8.33.71-5.35,4.51-2.63,7.88-2.56,10.21.21,20.41.61,30.62.56,4.38.19,5.4-10.83,3.85-11.92-4.66-3.27-27.43,2.74-36.68-3.67-8.56-5.94-8.62-26.41.11-32.12,1.77-1.16,7.72-3.12,9.63-3.12h38.62v12.75h-33.38c-3.37,0-3.42,6.75-3.38,9,.57,2.46,3.9,6.5,4.93,3.82,4.8-.24,32.84-1.19,33.27,4.66.06.81-.86,1.57-1.56,2,5.67-2.21,6.63,7.01,4.03,10.49,3.85,13.56-3.26,19.73-16.3,20.45-7.35.4-16.01-.03-23.4-.48-.6-.04-1.19-.1-1.71-.44Z" class="st0"></path>
  <path d="M193.88,218.25c1.88.32,2.3,2.32,2.97,3.76,5.65,12.12,9.61,26.49,14.67,38.99.44.34,1.75-1.42,2.07-2.05,6.3-12.44,9.1-28.5,16.3-40.7h17.25c1.77,0,.22,3.06-.03,3.72-7.46,19.79-17.21,38.83-24.8,58.58-3.92-.76-18.44,1.32-20.59-1.13-6.93-17.72-15.46-34.86-22.47-52.53-.66-1.65-2.48-5.75-2.69-7.08-.13-.82.51-1.55.83-1.55,4.63,0,12.36-.7,16.5,0Z" class="st0"></path>
  <path d="M612.75,280.5h-18v-49.5h-19.12c-1.6,0-1.66-11.56-.42-12.42l57.32-.22c2.15.71,1.59,12.65.1,12.65h-18.75c-.08,0-1.12,1.05-1.12,1.12v48.38Z" class="st0"></path>
  <path d="M393.75,280.5c7.89.18,24.1,1.2,31.08-.04.76-.14,5.62-2.42,6.1-2.91.92-.92.79-2.37,1.28-2.84.45-.43,1.73-.22,2.39-.96,2.63-2.96-1.35-9.11-.9-13.05.15-1.33,1.8-2.33,2.05-3.89.13-.83-.56-5.37-.76-5.57-.25-.25-6.07,2.72-5.27-1.88.06-.36,2.04-.14,1.52-1.48-1.09-2.84-3.81-1.06-5.28-1.45-1.24-.33-1.83-1.68-4.06-1.97-3.11-.41-19.11-.54-21.78.03-.98.21,2.03,3.08-1.53,2.28-1.7-.38-1.37-1.5-2.1-2.06-.51-.39-1.68-.07-1.88-.28-.37-.4-.09-3.39-.11-4.43,1.24,1.22,1.5,2.61,3.39,2.99,10.21,2.05,32.43-4.49,38,8.49,3.54,8.24,3.03,24.25-6.5,28.28-8.68,3.67-21.91,1.6-31.53,1.5-1.27-.01-3.33.48-4.11-.76Z" class="st2"></path>
  <path d="M329.25,249.75c.24-.74-.75-1.63-.75-1.88v-15.75c0-.08,1.05-1.12,1.12-1.12h21.75c4.7,0,5.62,18.75-1.5,18.75h-20.62Z" class="st1"></path>
  <path d="M463.5,258c-.7-.65,5.54-16.14,6.42-17.99.38-.81-.05-1.92,1.45-1.51,1,.27,6.37,17.06,7.13,19.5h-15Z" class="st3"></path>
</svg>